<svg width="1207" height="428" viewBox="0 0 1207 428" fill="none" xmlns="http://www.w3.org/2000/svg">
<path d="M195 31H409.276C468.067 31 523.628 57.8902 560.104 103.997V103.997C592.086 144.423 640.802 168 692.35 168H734" stroke="url(#paint0_linear_865_96)" stroke-width="8"/>
<path d="M734 192H601.653C578.996 192 556.645 197.237 536.346 207.303L434.208 257.952C402.31 273.77 367.188 282 331.583 282H198" stroke="url(#paint1_linear_865_96)" stroke-width="8"/>
<path d="M734 200H690.901C651.298 200 617.906 229.516 613.043 268.82V268.82C605.966 326.033 557.356 369 499.706 369H456" stroke="url(#paint2_linear_865_96)" stroke-width="8"/>
<path d="M734 184H247" stroke="url(#paint3_linear_865_96)" stroke-width="8"/>
<path d="M734 176H645.792C601.31 176 558.003 161.722 522.242 135.268L512.781 128.269C487.084 109.26 455.964 99 424 99V99" stroke="url(#paint4_linear_865_96)" stroke-width="8"/>
<path d="M776.144 202.852C781.2 202.852 784.72 199.012 784.72 193.764V188.484C784.72 183.236 781.2 179.396 776.144 179.396C771.024 179.396 767.536 183.236 767.536 188.484V193.764C767.536 199.012 771.024 202.852 776.144 202.852ZM776.144 198.084C774.32 198.084 772.976 197.06 772.496 195.14L779.888 190.98V193.764C779.888 196.484 778.352 198.084 776.144 198.084ZM772.368 188.484C772.368 185.764 773.872 184.164 776.144 184.164C777.936 184.164 779.248 185.22 779.728 187.108L772.368 191.268V188.484ZM791.32 202.5L796.92 194.98L802.552 202.5H808.472L799.992 191.012L807.96 179.78H802.072L796.92 187.076L791.768 179.78H785.88L793.88 191.012L785.368 202.5H791.32ZM810.172 208.708H815.004V201.476C815.868 202.276 817.148 202.852 818.78 202.852C823.516 202.852 826.652 198.98 826.652 194.5C826.652 190.02 823.516 186.148 818.78 186.148C817.148 186.148 815.868 186.724 815.004 187.492V186.5H810.172V208.708ZM818.044 198.468C816.54 198.468 815.676 197.828 815.004 196.932V192.036C815.676 191.172 816.54 190.532 818.044 190.532C820.22 190.532 821.66 192.356 821.66 194.5C821.66 196.644 820.22 198.468 818.044 198.468ZM829.703 202.5H834.535V192.388C835.335 191.268 836.839 190.948 837.959 190.948C838.631 190.948 839.175 191.044 839.303 191.14L840.039 186.628C839.687 186.5 838.951 186.308 838.087 186.308C836.455 186.308 835.047 187.172 834.535 188.292V186.5H829.703V202.5ZM849.252 202.852C853.86 202.852 857.668 199.204 857.668 194.5C857.668 189.796 853.86 186.148 849.252 186.148C844.644 186.148 840.836 189.796 840.836 194.5C840.836 199.204 844.644 202.852 849.252 202.852ZM849.252 198.34C847.204 198.34 845.7 196.804 845.7 194.5C845.7 192.196 847.204 190.66 849.252 190.66C851.3 190.66 852.804 192.196 852.804 194.5C852.804 196.804 851.3 198.34 849.252 198.34ZM868.192 202.852C871.488 202.852 874.496 200.964 875.84 198.18L871.616 195.94C871.008 197.316 869.824 198.34 868.192 198.34C866.176 198.34 864.544 196.772 864.544 194.5C864.544 192.228 866.176 190.66 868.192 190.66C869.824 190.66 871.008 191.684 871.616 193.06L875.84 190.82C874.496 188.036 871.488 186.148 868.192 186.148C863.488 186.148 859.68 189.636 859.68 194.5C859.68 199.364 863.488 202.852 868.192 202.852ZM885.974 202.852C889.334 202.852 891.99 201.476 893.494 199.332L889.91 196.644C889.302 197.572 887.926 198.468 886.038 198.468C884.214 198.468 882.422 197.572 882.134 195.652H893.75C893.846 194.884 893.846 194.372 893.846 193.956C893.846 188.772 890.102 186.148 885.878 186.148C881.014 186.148 877.462 189.764 877.462 194.5C877.462 199.652 881.27 202.852 885.974 202.852ZM882.262 192.484C882.678 190.724 884.342 190.084 885.75 190.084C887.158 190.084 888.63 190.788 889.046 192.484H882.262ZM902.394 202.852C905.882 202.852 908.634 200.612 908.634 197.54C908.634 194.692 906.842 193.252 903.93 192.484L902.458 192.1C901.21 191.748 901.114 191.3 901.114 190.948C901.114 190.34 901.818 190.116 902.426 190.116C903.354 190.116 904.218 190.468 904.954 191.396L908.09 188.804C906.81 187.044 904.922 186.148 902.458 186.148C898.938 186.148 896.41 188.1 896.314 191.076C896.218 193.636 897.786 195.588 900.858 196.324L901.914 196.58C903.578 196.996 903.866 197.284 903.866 197.828C903.866 198.468 903.13 198.724 902.394 198.724C900.89 198.724 899.674 198.116 898.938 197.06L895.738 199.972C897.242 201.924 899.578 202.852 902.394 202.852ZM917.144 202.852C920.632 202.852 923.384 200.612 923.384 197.54C923.384 194.692 921.592 193.252 918.68 192.484L917.208 192.1C915.96 191.748 915.864 191.3 915.864 190.948C915.864 190.34 916.568 190.116 917.176 190.116C918.104 190.116 918.968 190.468 919.704 191.396L922.84 188.804C921.56 187.044 919.672 186.148 917.208 186.148C913.688 186.148 911.16 188.1 911.064 191.076C910.968 193.636 912.536 195.588 915.608 196.324L916.664 196.58C918.328 196.996 918.616 197.284 918.616 197.828C918.616 198.468 917.88 198.724 917.144 198.724C915.64 198.724 914.424 198.116 913.688 197.06L910.488 199.972C911.992 201.924 914.328 202.852 917.144 202.852ZM928.79 184.964C930.486 184.964 931.83 183.62 931.83 181.956C931.83 180.292 930.486 178.948 928.79 178.948C927.158 178.948 925.782 180.292 925.782 181.956C925.782 183.62 927.158 184.964 928.79 184.964ZM926.39 202.5H931.222V186.5H926.39V202.5ZM935.203 202.5H940.035V192.004C940.707 191.14 941.891 190.532 943.139 190.532C945.027 190.532 945.859 192.036 945.859 194.212V202.5H950.691V193.38C950.691 189.06 948.355 186.148 944.195 186.148C942.499 186.148 941.027 186.724 940.035 187.652V186.5H935.203V202.5ZM961.621 209.028C965.589 209.028 970.133 207.46 970.133 201.636V186.5H965.301V187.492C964.437 186.724 963.125 186.148 961.461 186.148C956.885 186.148 953.493 189.668 953.493 194.148C953.493 198.628 956.853 202.148 961.461 202.148C963.125 202.148 964.437 201.572 965.301 200.772V201.7C965.301 203.876 963.349 204.804 961.557 204.804C960.117 204.804 958.517 204.42 957.141 203.364L954.613 206.98C956.533 208.484 959.189 209.028 961.621 209.028ZM962.261 197.764C960.085 197.764 958.485 196.324 958.485 194.148C958.485 191.972 960.085 190.532 962.261 190.532C963.765 190.532 964.629 191.172 965.301 192.036V196.228C964.629 197.124 963.765 197.764 962.261 197.764Z" fill="white"/>
<path d="M998.072 204.324L1007.86 194.532L998.072 184.74L995.416 187.492L1000.54 192.612H984.824V196.452H1000.54L995.416 201.604L998.072 204.324Z" fill="white"/>
<path d="M1064.45 116.126V113.147H1071.46V108.513H1052.3V113.147H1059.31V116.138C1053.65 116.427 1049.4 117.615 1049.4 119.035C1049.4 120.456 1053.65 121.643 1059.31 121.933V131.216C1060.18 131.394 1061.08 131.487 1062 131.487C1062.84 131.487 1063.66 131.41 1064.45 131.262V121.945C1070.23 121.676 1074.6 120.476 1074.6 119.035C1074.6 117.595 1070.23 116.395 1064.45 116.126ZM1062 120.866C1055.68 120.866 1050.56 119.914 1050.56 118.74C1050.56 117.737 1054.29 116.896 1059.31 116.672V120.078C1060.17 120.201 1061.02 120.262 1061.88 120.262C1062.74 120.262 1063.6 120.201 1064.45 120.078V116.661C1069.59 116.87 1073.44 117.721 1073.44 118.74C1073.44 119.914 1068.32 120.866 1062 120.866Z" fill="white"/>
<path d="M1088.71 130.288C1092.65 130.288 1095.38 127.624 1095.38 123.376V112.96H1093.15V123.424C1093.15 126.496 1091.4 128.176 1088.71 128.176C1086.02 128.176 1084.27 126.496 1084.27 123.424V112.96H1082.04V123.376C1082.04 127.624 1084.78 130.288 1088.71 130.288ZM1104.23 130.288C1107.4 130.288 1109.68 128.44 1109.68 125.56C1109.68 123.04 1108.26 121.6 1105.69 120.64L1103.65 119.848C1101.9 119.2 1101.09 118.552 1101.09 117.112C1101.09 115.696 1102.48 114.76 1104.16 114.76C1105.62 114.76 1106.65 115.408 1107.54 116.44L1109.15 115C1108.12 113.632 1106.34 112.672 1104.21 112.672C1101.16 112.672 1098.85 114.424 1098.85 117.208C1098.85 119.536 1100.05 120.928 1102.74 121.912L1105 122.776C1106.61 123.376 1107.45 124.288 1107.45 125.656C1107.45 127.24 1106.08 128.2 1104.28 128.2C1102.36 128.2 1100.99 127.312 1100.05 125.872L1098.28 127.216C1099.12 128.968 1101.45 130.288 1104.23 130.288ZM1112.96 130H1117.86C1123.09 130 1126.93 126.352 1126.93 121.48C1126.93 116.608 1123.09 112.96 1117.86 112.96H1112.96V130ZM1115.19 127.912V115.048H1117.86C1121.96 115.048 1124.67 117.76 1124.67 121.48C1124.67 125.2 1121.96 127.912 1117.86 127.912H1115.19ZM1132.77 130H1134.96V115.072H1140.26V112.96H1127.47V115.072H1132.77V130Z" fill="white"/>
<rect x="1020.5" y="90.5" width="148" height="61" rx="27.5" stroke="white"/>
<g clip-path="url(#clip0_865_96)">
<path d="M1062 176.059L1065.45 179.586L1056.76 188.257L1053.3 184.814L1062 176.059Z" fill="white" stroke="white"/>
<path d="M1067.24 181.287L1070.7 184.814L1056.76 198.713L1053.3 195.269L1067.24 181.287Z" fill="white" stroke="white"/>
<path d="M1051.51 186.515L1054.97 190.042L1051.51 193.485L1048.06 190.042L1051.51 186.515Z" fill="white" stroke="white"/>
<path d="M1072.49 186.515L1075.94 190.042L1062 203.941L1058.55 200.497L1072.49 186.515Z" fill="white" stroke="white"/>
</g>
<path d="M1082.26 200V182.96H1087.85C1089.38 182.96 1090.62 183.4 1091.54 184.28C1092.47 185.16 1092.94 186.224 1092.94 187.472C1092.94 189.04 1092.33 190.2 1091.11 190.952C1093.08 191.672 1094.06 193.032 1094.06 195.032C1094.06 196.472 1093.54 197.664 1092.48 198.608C1091.44 199.536 1090.06 200 1088.35 200H1082.26ZM1084.49 197.984H1088.45C1089.57 197.984 1090.42 197.728 1090.99 197.216C1091.58 196.688 1091.88 195.984 1091.88 195.104C1091.88 194.24 1091.58 193.544 1090.99 193.016C1090.42 192.472 1089.58 192.2 1088.47 192.2H1084.49V197.984ZM1084.49 190.28H1087.85C1088.74 190.28 1089.45 190.04 1089.96 189.56C1090.49 189.064 1090.75 188.424 1090.75 187.64C1090.75 186.888 1090.49 186.256 1089.96 185.744C1089.43 185.232 1088.73 184.976 1087.85 184.976H1084.49V190.28ZM1108.63 198.416C1107.4 199.664 1105.79 200.288 1103.81 200.288C1101.82 200.288 1100.21 199.664 1098.98 198.416C1097.75 197.152 1097.13 195.472 1097.13 193.376V182.96H1099.37V193.424C1099.37 194.944 1099.77 196.12 1100.57 196.952C1101.37 197.768 1102.45 198.176 1103.81 198.176C1105.17 198.176 1106.25 197.768 1107.05 196.952C1107.85 196.12 1108.25 194.944 1108.25 193.424V182.96H1110.48V193.376C1110.48 195.472 1109.86 197.152 1108.63 198.416ZM1119.32 200.288C1117.96 200.288 1116.74 200 1115.65 199.424C1114.56 198.848 1113.8 198.112 1113.37 197.216L1115.15 195.872C1116.16 197.424 1117.56 198.2 1119.37 198.2C1120.3 198.2 1121.06 197.968 1121.65 197.504C1122.24 197.04 1122.54 196.424 1122.54 195.656C1122.54 194.344 1121.72 193.384 1120.09 192.776L1117.84 191.912C1116.48 191.416 1115.48 190.8 1114.86 190.064C1114.25 189.312 1113.95 188.36 1113.95 187.208C1113.95 185.832 1114.45 184.736 1115.46 183.92C1116.47 183.088 1117.75 182.672 1119.3 182.672C1120.34 182.672 1121.29 182.888 1122.16 183.32C1123.02 183.736 1123.72 184.296 1124.24 185L1122.64 186.44C1121.68 185.32 1120.55 184.76 1119.25 184.76C1118.39 184.76 1117.66 184.984 1117.07 185.432C1116.48 185.864 1116.18 186.424 1116.18 187.112C1116.18 187.8 1116.37 188.344 1116.76 188.744C1117.16 189.144 1117.82 189.512 1118.75 189.848L1120.79 190.64C1122.12 191.136 1123.11 191.776 1123.76 192.56C1124.44 193.344 1124.77 194.344 1124.77 195.56C1124.77 196.984 1124.26 198.128 1123.24 198.992C1122.23 199.856 1120.92 200.288 1119.32 200.288ZM1128.05 200V182.96H1132.95C1135.56 182.96 1137.72 183.768 1139.43 185.384C1141.16 187 1142.02 189.032 1142.02 191.48C1142.02 193.928 1141.16 195.96 1139.43 197.576C1137.72 199.192 1135.56 200 1132.95 200H1128.05ZM1130.28 197.912H1132.95C1134.98 197.912 1136.62 197.312 1137.87 196.112C1139.13 194.896 1139.76 193.352 1139.76 191.48C1139.76 189.608 1139.13 188.072 1137.87 186.872C1136.62 185.656 1134.98 185.048 1132.95 185.048H1130.28V197.912Z" fill="white"/>
<rect x="1020.5" y="160.5" width="151" height="61" rx="27.5" stroke="white"/>
<g clip-path="url(#clip1_865_96)">
<path fill-rule="evenodd" clip-rule="evenodd" d="M1062 274C1069.76 274 1076 267.758 1076 260C1076 252.242 1069.76 246 1062 246C1054.24 246 1048 252.242 1048 260C1048 267.758 1054.24 274 1062 274ZM1065.85 262.217C1065.85 260.175 1064.62 259.475 1062.17 259.183C1060.42 258.95 1060.07 258.483 1060.07 257.667C1060.07 256.85 1060.66 256.325 1061.82 256.325C1062.87 256.325 1063.46 256.675 1063.75 257.55C1063.81 257.725 1063.98 257.842 1064.16 257.842H1065.09C1065.32 257.842 1065.5 257.667 1065.5 257.433V257.375C1065.27 256.092 1064.22 255.1 1062.87 254.983V253.583C1062.87 253.35 1062.7 253.175 1062.41 253.117H1061.53C1061.3 253.117 1061.12 253.292 1061.07 253.583V254.925C1059.32 255.158 1058.21 256.325 1058.21 257.783C1058.21 259.708 1059.37 260.467 1061.82 260.758C1063.46 261.05 1063.98 261.4 1063.98 262.333C1063.98 263.267 1063.17 263.908 1062.06 263.908C1060.54 263.908 1060.02 263.267 1059.84 262.392C1059.78 262.158 1059.61 262.042 1059.43 262.042H1058.44C1058.21 262.042 1058.03 262.217 1058.03 262.45V262.508C1058.27 263.967 1059.2 265.017 1061.12 265.308V266.708C1061.12 266.942 1061.3 267.117 1061.59 267.175H1062.47C1062.7 267.175 1062.87 267 1062.93 266.708V265.308C1064.68 265.017 1065.85 263.792 1065.85 262.217ZM1053.83 257.142C1052.14 261.633 1054.47 266.708 1059.02 268.342C1059.2 268.458 1059.37 268.692 1059.37 268.867V269.683C1059.37 269.8 1059.37 269.858 1059.32 269.917C1059.26 270.15 1059.02 270.267 1058.79 270.15C1055.52 269.1 1053.02 266.592 1051.97 263.325C1050.22 257.783 1053.25 251.892 1058.79 250.142C1058.85 250.083 1058.97 250.083 1059.02 250.083C1059.26 250.142 1059.37 250.317 1059.37 250.55V251.367C1059.37 251.658 1059.26 251.833 1059.02 251.95C1056.63 252.825 1054.71 254.692 1053.83 257.142ZM1064.68 250.375C1064.74 250.142 1064.97 250.025 1065.21 250.142C1068.42 251.192 1070.98 253.7 1072.03 257.025C1073.78 262.567 1070.75 268.458 1065.21 270.208C1065.15 270.267 1065.03 270.267 1064.97 270.267C1064.74 270.208 1064.62 270.033 1064.62 269.8V268.983C1064.62 268.692 1064.74 268.517 1064.97 268.4C1067.37 267.525 1069.29 265.658 1070.17 263.208C1071.86 258.717 1069.52 253.642 1064.97 252.008C1064.8 251.892 1064.62 251.658 1064.62 251.425V250.608C1064.62 250.492 1064.62 250.433 1064.68 250.375Z" fill="white"/>
</g>
<path d="M1093.54 268.416C1092.3 269.664 1090.7 270.288 1088.71 270.288C1086.73 270.288 1085.12 269.664 1083.89 268.416C1082.66 267.152 1082.04 265.472 1082.04 263.376V252.96H1084.27V263.424C1084.27 264.944 1084.67 266.12 1085.47 266.952C1086.27 267.768 1087.35 268.176 1088.71 268.176C1090.07 268.176 1091.15 267.768 1091.95 266.952C1092.75 266.12 1093.15 264.944 1093.15 263.424V252.96H1095.38V263.376C1095.38 265.472 1094.77 267.152 1093.54 268.416ZM1104.23 270.288C1102.87 270.288 1101.65 270 1100.56 269.424C1099.47 268.848 1098.71 268.112 1098.28 267.216L1100.05 265.872C1101.06 267.424 1102.47 268.2 1104.28 268.2C1105.21 268.2 1105.97 267.968 1106.56 267.504C1107.15 267.04 1107.45 266.424 1107.45 265.656C1107.45 264.344 1106.63 263.384 1105 262.776L1102.74 261.912C1101.38 261.416 1100.39 260.8 1099.77 260.064C1099.16 259.312 1098.85 258.36 1098.85 257.208C1098.85 255.832 1099.36 254.736 1100.37 253.92C1101.37 253.088 1102.65 252.672 1104.21 252.672C1105.25 252.672 1106.2 252.888 1107.06 253.32C1107.93 253.736 1108.62 254.296 1109.15 255L1107.54 256.44C1106.58 255.32 1105.45 254.76 1104.16 254.76C1103.29 254.76 1102.57 254.984 1101.97 255.432C1101.38 255.864 1101.09 256.424 1101.09 257.112C1101.09 257.8 1101.28 258.344 1101.66 258.744C1102.06 259.144 1102.73 259.512 1103.65 259.848L1105.69 260.64C1107.02 261.136 1108.01 261.776 1108.67 262.56C1109.34 263.344 1109.68 264.344 1109.68 265.56C1109.68 266.984 1109.17 268.128 1108.14 268.992C1107.13 269.856 1105.83 270.288 1104.23 270.288ZM1112.96 270V252.96H1117.86C1120.46 252.96 1122.62 253.768 1124.34 255.384C1126.06 257 1126.93 259.032 1126.93 261.48C1126.93 263.928 1126.06 265.96 1124.34 267.576C1122.62 269.192 1120.46 270 1117.86 270H1112.96ZM1115.19 267.912H1117.86C1119.89 267.912 1121.53 267.312 1122.78 266.112C1124.04 264.896 1124.67 263.352 1124.67 261.48C1124.67 259.608 1124.04 258.072 1122.78 256.872C1121.53 255.656 1119.89 255.048 1117.86 255.048H1115.19V267.912ZM1137.89 270.288C1135.44 270.288 1133.36 269.44 1131.65 267.744C1129.94 266.032 1129.08 263.944 1129.08 261.48C1129.08 259.016 1129.94 256.936 1131.65 255.24C1133.36 253.528 1135.44 252.672 1137.89 252.672C1139.5 252.672 1140.97 253.04 1142.28 253.776C1143.59 254.512 1144.64 255.52 1145.42 256.8L1143.55 257.928C1142.94 256.952 1142.15 256.184 1141.18 255.624C1140.2 255.064 1139.1 254.784 1137.89 254.784C1136.03 254.784 1134.47 255.432 1133.21 256.728C1131.96 258.024 1131.34 259.608 1131.34 261.48C1131.34 263.352 1131.96 264.936 1133.21 266.232C1134.47 267.528 1136.03 268.176 1137.89 268.176C1139.1 268.176 1140.2 267.896 1141.18 267.336C1142.15 266.776 1142.94 266.008 1143.55 265.032L1145.42 266.16C1144.64 267.44 1143.59 268.448 1142.28 269.184C1140.97 269.92 1139.5 270.288 1137.89 270.288Z" fill="white"/>
<rect x="1020.5" y="230.5" width="154" height="61" rx="27.5" stroke="white"/>
<rect x="735" y="67" width="471" height="248" rx="31" stroke="#DD475E" stroke-width="2"/>
<rect x="735" y="67" width="471" height="248" rx="31" stroke="url(#paint5_linear_865_96)" stroke-width="2"/>
<path fill-rule="evenodd" clip-rule="evenodd" d="M42.0002 16.0001L51.9778 29.3035L42.0002 32.6294L32.0226 29.3035L42.0002 16.0001ZM34.7437 28.4469L42.0002 27.6406V18.7715L34.7437 28.4469ZM42 43.9999L32.0225 31.5279L42 35.6852L51.9776 31.5279L42 43.9999ZM41.3605 37.2203L37.3787 35.5612L42 41.3379V37.4867L41.3605 37.2203Z" fill="white"/>
<path d="M62.2617 40V22.9609H72.1875V25.0703H64.4883V30.2266H70.7578V32.3477H64.4883V37.8906H72.1875V40H62.2617ZM80.0156 40.1172C78.9375 40.1172 78.043 39.8047 77.332 39.1797C76.6289 38.5469 76.2773 37.6367 76.2773 36.4492V29.8984H73.2539V28H76.2773V24.5898H78.3398V28H82.0547V29.8984H78.3398V36.1797C78.3398 36.9062 78.5117 37.4375 78.8555 37.7734C79.207 38.1094 79.6758 38.2773 80.2617 38.2773C80.8867 38.2773 81.4609 38.125 81.9844 37.8203L82.6055 39.5664C81.918 39.9336 81.0547 40.1172 80.0156 40.1172ZM86.9062 40H84.8438V22.4805H86.9062V29.5117C87.3125 28.9258 87.8438 28.4883 88.5 28.1992C89.1641 27.9102 89.8984 27.7656 90.7031 27.7656C92.0625 27.7656 93.1602 28.207 93.9961 29.0898C94.8398 29.9648 95.2617 31.1445 95.2617 32.6289V40H93.2227V32.9453C93.2227 31.8984 92.957 31.0898 92.4258 30.5195C91.8945 29.9414 91.1602 29.6523 90.2227 29.6523C89.3945 29.6523 88.6953 29.8672 88.125 30.2969C87.5625 30.7188 87.1562 31.2969 86.9062 32.0312V40ZM104.25 40.2344C102.406 40.2344 100.91 39.6445 99.7617 38.4648C98.6133 37.2773 98.0391 35.7891 98.0391 34C98.0391 32.8359 98.3008 31.7812 98.8242 30.8359C99.3477 29.8828 100.086 29.1328 101.039 28.5859C101.992 28.0391 103.07 27.7656 104.273 27.7656C105.328 27.7656 106.281 27.9961 107.133 28.457C107.992 28.918 108.684 29.6133 109.207 30.543C109.73 31.4648 109.992 32.5469 109.992 33.7891C109.992 34.0234 109.984 34.2305 109.969 34.4102H100.125C100.164 35.5352 100.57 36.4727 101.344 37.2227C102.117 37.9727 103.094 38.3477 104.273 38.3477C105.969 38.3477 107.219 37.6523 108.023 36.2617L109.652 37.3867C109.098 38.293 108.363 38.9961 107.449 39.4961C106.535 39.9883 105.469 40.2344 104.25 40.2344ZM100.266 32.7227H107.883C107.727 31.7539 107.309 30.9883 106.629 30.4258C105.949 29.8633 105.141 29.582 104.203 29.582C103.266 29.582 102.422 29.8672 101.672 30.4375C100.922 31 100.453 31.7617 100.266 32.7227ZM112.922 40V28H114.984V29.7812C115.227 29.2656 115.652 28.8203 116.262 28.4453C116.871 28.0703 117.523 27.8828 118.219 27.8828C118.578 27.8828 118.934 27.9219 119.285 28L119.016 30.0625C118.727 29.9688 118.383 29.9219 117.984 29.9219C117.344 29.9219 116.738 30.125 116.168 30.5312C115.605 30.9297 115.211 31.4922 114.984 32.2188V40H112.922ZM126.352 40.2344C124.508 40.2344 123.012 39.6445 121.863 38.4648C120.715 37.2773 120.141 35.7891 120.141 34C120.141 32.8359 120.402 31.7812 120.926 30.8359C121.449 29.8828 122.188 29.1328 123.141 28.5859C124.094 28.0391 125.172 27.7656 126.375 27.7656C127.43 27.7656 128.383 27.9961 129.234 28.457C130.094 28.918 130.785 29.6133 131.309 30.543C131.832 31.4648 132.094 32.5469 132.094 33.7891C132.094 34.0234 132.086 34.2305 132.07 34.4102H122.227C122.266 35.5352 122.672 36.4727 123.445 37.2227C124.219 37.9727 125.195 38.3477 126.375 38.3477C128.07 38.3477 129.32 37.6523 130.125 36.2617L131.754 37.3867C131.199 38.293 130.465 38.9961 129.551 39.4961C128.637 39.9883 127.57 40.2344 126.352 40.2344ZM122.367 32.7227H129.984C129.828 31.7539 129.41 30.9883 128.73 30.4258C128.051 29.8633 127.242 29.582 126.305 29.582C125.367 29.582 124.523 29.8672 123.773 30.4375C123.023 31 122.555 31.7617 122.367 32.7227ZM145.031 28V40H142.969V38.4883C142.562 39.0664 142.035 39.5039 141.387 39.8008C140.746 40.0898 140.066 40.2344 139.348 40.2344C138.012 40.2344 136.93 39.7969 136.102 38.9219C135.273 38.0391 134.859 36.8555 134.859 35.3711V28H136.922V35.0547C136.922 36.1016 137.172 36.9141 137.672 37.4922C138.18 38.0625 138.887 38.3477 139.793 38.3477C140.543 38.3477 141.195 38.1328 141.75 37.7031C142.305 37.2734 142.711 36.6953 142.969 35.9688V28H145.031ZM164.379 40V32.9688C164.379 31.9453 164.137 31.1367 163.652 30.543C163.168 29.9492 162.496 29.6523 161.637 29.6523C160.902 29.6523 160.281 29.8633 159.773 30.2852C159.266 30.6992 158.895 31.2734 158.66 32.0078C158.691 32.2891 158.707 32.4961 158.707 32.6289V40H156.645V32.9688C156.645 31.9453 156.402 31.1367 155.918 30.543C155.441 29.9492 154.781 29.6523 153.938 29.6523C153.234 29.6523 152.625 29.8477 152.109 30.2383C151.594 30.6211 151.219 31.1328 150.984 31.7734V40H148.922V28H150.984V29.2773C151.391 28.7695 151.895 28.3906 152.496 28.1406C153.105 27.8906 153.746 27.7656 154.418 27.7656C155.168 27.7656 155.848 27.9375 156.457 28.2812C157.066 28.6172 157.555 29.0977 157.922 29.7227C158.375 29.0508 158.953 28.5586 159.656 28.2461C160.367 27.9258 161.133 27.7656 161.953 27.7656C163.367 27.7656 164.469 28.2031 165.258 29.0781C166.047 29.9531 166.441 31.1367 166.441 32.6289V40H164.379Z" fill="white"/>
<rect x="1" y="1" width="195" height="60" rx="27" stroke="white" stroke-width="2"/>
<rect x="1" y="1" width="195" height="60" rx="27" stroke="#E8B24F" stroke-width="2"/>
<path fill-rule="evenodd" clip-rule="evenodd" d="M140.755 171.51H132.604V180.065H129.921V183.526H132.604V192.49H140.755C142.139 192.49 143.402 192.224 144.545 191.693C145.688 191.161 146.671 190.424 147.493 189.482C148.315 188.539 148.952 187.427 149.403 186.143C149.854 184.86 150.08 183.466 150.08 181.962C150.08 180.519 149.864 179.165 149.433 177.902C149.002 176.629 148.38 175.521 147.568 174.578C146.766 173.626 145.789 172.879 144.636 172.337C143.493 171.786 142.199 171.51 140.755 171.51ZM136.154 183.526V189.452H139.913C140.866 189.452 141.748 189.291 142.56 188.971C143.372 188.64 144.069 188.158 144.651 187.527C145.242 186.895 145.703 186.118 146.034 185.196C146.365 184.263 146.53 183.196 146.53 181.992C146.53 180.699 146.36 179.581 146.019 178.639C145.688 177.696 145.227 176.919 144.636 176.308C144.054 175.696 143.357 175.245 142.545 174.954C141.733 174.653 140.856 174.503 139.913 174.503H136.154V180.065H143.018V183.526H136.154Z" fill="white"/>
<path d="M160.256 192H165.152C170.384 192 174.224 188.352 174.224 183.48C174.224 178.608 170.384 174.96 165.152 174.96H160.256V192ZM162.488 189.912V177.048H165.152C169.256 177.048 171.968 179.76 171.968 183.48C171.968 187.2 169.256 189.912 165.152 189.912H162.488ZM182.569 192.24C186.169 192.24 188.833 189.456 188.833 186C188.833 182.544 186.169 179.76 182.569 179.76C178.921 179.76 176.281 182.544 176.281 186C176.281 189.456 178.921 192.24 182.569 192.24ZM182.569 190.32C180.073 190.32 178.393 188.4 178.393 186C178.393 183.6 180.073 181.68 182.569 181.68C185.065 181.68 186.721 183.6 186.721 186C186.721 188.4 185.065 190.32 182.569 190.32ZM196.908 196.896C200.148 196.896 202.908 195.12 202.908 191.28V180H200.844V181.32C199.884 180.288 198.468 179.76 196.932 179.76C193.404 179.76 190.86 182.448 190.86 185.808C190.86 189.168 193.38 191.88 196.932 191.88C198.468 191.88 199.884 191.352 200.844 190.296V191.208C200.844 193.896 198.804 195.024 196.908 195.024C195.18 195.024 193.884 194.376 192.924 193.248L191.508 194.688C192.54 195.96 194.436 196.896 196.908 196.896ZM197.1 189.96C194.724 189.96 192.996 188.184 192.996 185.808C192.996 183.48 194.7 181.656 197.1 181.656C198.9 181.656 200.148 182.496 200.844 183.624V187.992C200.148 189.12 198.9 189.96 197.1 189.96ZM212.076 192.24C214.572 192.24 216.396 191.136 217.476 189.384L215.844 188.256C215.1 189.528 213.948 190.344 212.1 190.344C209.724 190.344 208.02 188.64 207.948 186.408H217.788C217.812 186.144 217.812 186 217.812 185.784C217.812 181.944 215.22 179.76 212.1 179.76C208.428 179.76 205.86 182.472 205.86 186C205.86 189.528 208.332 192.24 212.076 192.24ZM208.092 184.728C208.476 182.736 210.228 181.584 212.028 181.584C213.852 181.584 215.388 182.76 215.7 184.728H208.092Z" fill="white"/>
<rect x="99" y="153" width="147" height="60" rx="27" stroke="white" stroke-width="2"/>
<rect x="99" y="153" width="147" height="60" rx="27" stroke="#E8B24F" stroke-width="2"/>
<path fill-rule="evenodd" clip-rule="evenodd" d="M86 284.907C86 284.106 85.8146 283.38 85.4438 282.728C85.073 282.073 84.5679 281.569 83.9416 281.203C83.5022 280.942 82.873 280.705 82.0453 280.491C82.8146 280.223 83.4336 279.885 83.9007 279.474C84.3693 279.064 84.7285 278.591 84.9781 278.057C85.2263 277.522 85.3504 276.957 85.3504 276.361C85.3504 275.542 85.1153 274.788 84.6482 274.102C84.1752 273.417 83.5022 272.889 82.6263 272.524C82.2847 272.382 81.8788 272.274 81.4423 272.187V269H78.4569V271.972H76.5387V269H73.5533V271.972H69V274.469H69.6964C70.1591 274.469 70.473 274.514 70.638 274.6C70.8029 274.685 70.9182 274.803 70.9854 274.948C71.054 275.095 71.0876 275.437 71.0876 275.971V286.042C71.0876 286.572 71.0555 286.908 70.9854 287.059C70.9182 287.212 70.8029 287.329 70.638 287.408C70.473 287.49 70.1606 287.532 69.6964 287.532H69V290.03H73.5533V293H76.5387V290.03H78.2365C78.3153 290.03 78.3869 290.028 78.4584 290.028V293H81.4438V289.772C81.9445 289.674 82.3869 289.55 82.7591 289.393C83.7883 288.972 84.5839 288.359 85.1518 287.552C85.7168 286.75 86 285.866 86 284.907ZM77.7314 281.943C78.7299 281.943 79.4745 282.039 79.962 282.229C80.4496 282.419 80.8146 282.7 81.0555 283.063C81.2978 283.437 81.4204 283.89 81.4204 284.424C81.4204 285.055 81.2453 285.592 80.9036 286.042C80.562 286.493 80.1431 286.789 79.6496 286.929C79.1606 287.074 78.5401 287.148 77.7927 287.148H76.508C76.0803 287.148 75.8175 287.119 75.7212 287.074C75.6234 287.028 75.5547 286.941 75.5124 286.823C75.4788 286.729 75.4584 286.406 75.4496 285.852V281.943H77.7314ZM80.7168 278.25C80.4715 278.596 80.1095 278.858 79.6234 279.03C79.1387 279.203 78.3927 279.29 77.3825 279.291H75.4496V274.89H77.3825C78.508 274.89 79.292 274.961 79.7314 275.105C80.1664 275.247 80.5036 275.486 80.7358 275.823C80.9664 276.159 81.0818 276.565 81.0818 277.039C81.0818 277.497 80.9606 277.902 80.7168 278.25Z" fill="white"/>
<path d="M92.256 290H98.352C101.808 290 104.064 287.864 104.064 285.032C104.064 282.752 102.768 281.552 101.112 280.952C102.192 280.28 102.936 279.176 102.936 277.472C102.936 275.072 101.016 272.96 97.848 272.96H92.256V290ZM94.488 287.984V282.2H98.472C100.752 282.2 101.88 283.448 101.88 285.104C101.88 286.808 100.752 287.984 98.448 287.984H94.488ZM94.488 280.28V274.976H97.848C99.672 274.976 100.752 276.2 100.752 277.64C100.752 279.176 99.672 280.28 97.848 280.28H94.488ZM108.07 275.264C108.91 275.264 109.534 274.64 109.534 273.8C109.534 273.008 108.91 272.336 108.07 272.336C107.23 272.336 106.582 273.008 106.582 273.8C106.582 274.64 107.23 275.264 108.07 275.264ZM107.014 290H109.078V278H107.014V290ZM118.127 290.12C119.351 290.12 120.215 289.832 120.719 289.568L120.095 287.816C119.735 288.032 119.159 288.272 118.367 288.272C117.287 288.272 116.447 287.72 116.447 286.184V279.896H120.167V278H116.447V274.592H114.383V278H111.359V279.896H114.383V286.448C114.383 288.944 116.111 290.12 118.127 290.12ZM128.093 290.24C130.589 290.24 132.581 288.944 133.637 287.024L131.837 286.016C131.165 287.384 129.821 288.32 128.093 288.32C125.597 288.32 123.893 286.4 123.893 284C123.893 281.6 125.597 279.68 128.093 279.68C129.821 279.68 131.165 280.616 131.837 281.984L133.637 280.976C132.581 279.056 130.589 277.76 128.093 277.76C124.445 277.76 121.805 280.52 121.805 284C121.805 287.48 124.445 290.24 128.093 290.24ZM141.639 290.24C145.239 290.24 147.903 287.456 147.903 284C147.903 280.544 145.239 277.76 141.639 277.76C137.991 277.76 135.351 280.544 135.351 284C135.351 287.456 137.991 290.24 141.639 290.24ZM141.639 288.32C139.143 288.32 137.463 286.4 137.463 284C137.463 281.6 139.143 279.68 141.639 279.68C144.135 279.68 145.791 281.6 145.791 284C145.791 286.4 144.135 288.32 141.639 288.32ZM151.922 275.264C152.762 275.264 153.386 274.64 153.386 273.8C153.386 273.008 152.762 272.336 151.922 272.336C151.082 272.336 150.434 273.008 150.434 273.8C150.434 274.64 151.082 275.264 151.922 275.264ZM150.866 290H152.93V278H150.866V290ZM156.842 290H158.906V282.032C159.386 280.616 160.514 279.656 162.218 279.656C164.066 279.656 165.218 280.832 165.218 282.944V290H167.258V282.632C167.258 279.632 165.386 277.76 162.698 277.76C161.162 277.76 159.746 278.288 158.906 279.512V278H156.842V290Z" fill="white"/>
<rect x="42" y="251" width="155" height="60" rx="27" stroke="white" stroke-width="2"/>
<rect x="42" y="251" width="155" height="60" rx="27" stroke="#E8B24F" stroke-width="2"/>
<path d="M354.888 375.176C351.168 375.176 348.336 372.224 348.336 368.48C348.336 364.736 351.168 361.784 354.888 361.784C358.632 361.784 361.464 364.736 361.464 368.48C361.464 372.224 358.632 375.176 354.888 375.176ZM354.888 377.288C359.808 377.288 363.696 373.4 363.696 368.48C363.696 363.56 359.808 359.672 354.888 359.672C349.992 359.672 346.08 363.56 346.08 368.48C346.08 373.4 349.992 377.288 354.888 377.288ZM371.885 377.12C373.109 377.12 373.973 376.832 374.477 376.568L373.853 374.816C373.493 375.032 372.917 375.272 372.125 375.272C371.045 375.272 370.205 374.72 370.205 373.184V366.896H373.925V365H370.205V361.592H368.141V365H365.117V366.896H368.141V373.448C368.141 375.944 369.869 377.12 371.885 377.12ZM378.774 377V369.032C379.254 367.616 380.382 366.656 382.086 366.656C383.934 366.656 385.086 367.832 385.086 369.944V377H387.126V369.632C387.126 366.632 385.254 364.76 382.566 364.76C381.03 364.76 379.614 365.288 378.774 366.512V359.48H376.71V377H378.774ZM396.122 377.24C398.618 377.24 400.442 376.136 401.522 374.384L399.89 373.256C399.146 374.528 397.994 375.344 396.146 375.344C393.77 375.344 392.066 373.64 391.994 371.408H401.834C401.858 371.144 401.858 371 401.858 370.784C401.858 366.944 399.266 364.76 396.146 364.76C392.474 364.76 389.906 367.472 389.906 371C389.906 374.528 392.378 377.24 396.122 377.24ZM392.138 369.728C392.522 367.736 394.274 366.584 396.074 366.584C397.898 366.584 399.434 367.76 399.746 369.728H392.138ZM404.788 377H406.852V369.224C407.332 367.712 408.628 366.92 409.852 366.92C410.212 366.92 410.524 366.944 410.884 367.064L411.148 365C410.836 364.928 410.5 364.88 410.092 364.88C408.652 364.88 407.308 365.792 406.852 366.776V365H404.788V377ZM414.572 377V374.024H411.596V377H414.572ZM420.384 377V374.024H417.408V377H420.384ZM426.197 377V374.024H423.221V377H426.197Z" fill="white"/>
<rect x="318" y="338" width="137" height="60" rx="27" stroke="#E8B24F" stroke-width="2"/>
<path d="M322.562 95.7658L328 90.3284L333.44 95.7686L336.604 92.6047L328 84L319.398 92.6019L322.562 95.7658ZM314 97.9995L317.164 94.8354L320.328 97.9993L317.164 101.163L314 97.9995ZM322.562 100.234L328 105.672L333.44 100.231L336.606 103.394L336.604 103.395L328 112L319.398 103.398L319.394 103.394L322.562 100.234ZM335.672 98.0013L338.836 94.8372L342 98.0011L338.836 101.165L335.672 98.0013Z" fill="white"/>
<path d="M331.209 97.9983H331.21L328 94.7877L325.627 97.1604H325.627L325.354 97.4331L324.792 97.9955L324.788 97.9998L324.792 98.0044L328 101.212L331.21 98.0016L331.212 97.9998L331.209 97.9983Z" fill="white"/>
<path d="M348.262 108V90.9609H353.852C355.383 90.9609 356.613 91.4023 357.543 92.2852C358.473 93.1602 358.938 94.2227 358.938 95.4727C358.938 97.0352 358.328 98.1953 357.109 98.9531C359.078 99.6641 360.062 101.023 360.062 103.031C360.062 104.469 359.535 105.656 358.48 106.594C357.434 107.531 356.059 108 354.355 108H348.262ZM350.488 105.984H354.449C355.566 105.984 356.418 105.727 357.004 105.211C357.59 104.688 357.883 103.984 357.883 103.102C357.883 102.242 357.59 101.543 357.004 101.004C356.418 100.465 355.574 100.195 354.473 100.195H350.488V105.984ZM350.488 98.2852H353.852C354.75 98.2852 355.457 98.0391 355.973 97.5469C356.496 97.0547 356.758 96.418 356.758 95.6367C356.758 94.8867 356.492 94.2578 355.961 93.75C355.438 93.2344 354.734 92.9766 353.852 92.9766H350.488V98.2852ZM377.875 108H375.953L365.582 94.7227V108H363.355V90.9609H365.289L375.66 104.227V90.9609H377.875V108ZM382.41 108V90.9609H388C389.531 90.9609 390.762 91.4023 391.691 92.2852C392.621 93.1602 393.086 94.2227 393.086 95.4727C393.086 97.0352 392.477 98.1953 391.258 98.9531C393.227 99.6641 394.211 101.023 394.211 103.031C394.211 104.469 393.684 105.656 392.629 106.594C391.582 107.531 390.207 108 388.504 108H382.41ZM384.637 105.984H388.598C389.715 105.984 390.566 105.727 391.152 105.211C391.738 104.688 392.031 103.984 392.031 103.102C392.031 102.242 391.738 101.543 391.152 101.004C390.566 100.465 389.723 100.195 388.621 100.195H384.637V105.984ZM384.637 98.2852H388C388.898 98.2852 389.605 98.0391 390.121 97.5469C390.645 97.0547 390.906 96.418 390.906 95.6367C390.906 94.8867 390.641 94.2578 390.109 93.75C389.586 93.2344 388.883 92.9766 388 92.9766H384.637V98.2852Z" fill="white"/>
<rect x="287" y="69" width="136" height="60" rx="27" stroke="white" stroke-width="2"/>
<rect x="287" y="69" width="136" height="60" rx="27" stroke="#E8B24F" stroke-width="2"/>
<path d="M735.12 344H737.04L738.84 339.86H745.46L747.3 344H749.24L742.94 329.8H741.4L735.12 344ZM742.14 332.32L744.72 338.18H739.58L742.14 332.32ZM759.081 334H757.361V340.64C756.941 341.82 756.001 342.62 754.721 342.62C753.221 342.62 752.321 341.64 752.321 339.88V334H750.601V340.14C750.601 342.64 752.141 344.2 754.341 344.2C755.461 344.2 756.661 343.76 757.361 342.74V344H759.081V334ZM766.603 344.1C767.623 344.1 768.343 343.86 768.763 343.64L768.243 342.18C767.943 342.36 767.463 342.56 766.803 342.56C765.903 342.56 765.203 342.1 765.203 340.82V335.58H768.303V334H765.203V331.16H763.483V334H760.963V335.58H763.483V341.04C763.483 343.12 764.923 344.1 766.603 344.1ZM774.888 344.2C777.888 344.2 780.108 341.88 780.108 339C780.108 336.12 777.888 333.8 774.888 333.8C771.848 333.8 769.648 336.12 769.648 339C769.648 341.88 771.848 344.2 774.888 344.2ZM774.888 342.6C772.808 342.6 771.408 341 771.408 339C771.408 337 772.808 335.4 774.888 335.4C776.968 335.4 778.348 337 778.348 339C778.348 341 776.968 342.6 774.888 342.6ZM795.457 344H797.177V337.86C797.177 335.4 795.817 333.8 793.437 333.8C792.157 333.8 790.877 334.26 790.077 335.44C789.457 334.4 788.417 333.8 787.157 333.8C786.097 333.8 784.997 334.18 784.297 335.06V334H782.577V344H784.297V337.14C784.677 336.1 785.557 335.38 786.757 335.38C788.177 335.38 789.017 336.44 789.017 338.14V344H790.737V337.86C790.737 337.68 790.717 337.52 790.697 337.34C791.077 336.16 791.917 335.38 793.177 335.38C794.617 335.38 795.457 336.44 795.457 338.14V344ZM804.532 344.2C805.832 344.2 806.992 343.76 807.792 342.9V344H809.512V334H807.792V335.1C806.992 334.24 805.832 333.8 804.532 333.8C801.552 333.8 799.492 336.16 799.492 339C799.492 341.84 801.552 344.2 804.532 344.2ZM804.672 342.62C802.672 342.62 801.272 341 801.272 339C801.272 337 802.672 335.38 804.672 335.38C806.172 335.38 807.212 336.08 807.792 337.02V340.96C807.212 341.9 806.172 342.62 804.672 342.62ZM817.033 344.1C818.053 344.1 818.773 343.86 819.193 343.64L818.673 342.18C818.373 342.36 817.893 342.56 817.233 342.56C816.333 342.56 815.633 342.1 815.633 340.82V335.58H818.733V334H815.633V331.16H813.913V334H811.393V335.58H813.913V341.04C813.913 343.12 815.353 344.1 817.033 344.1ZM825.278 344.2C827.358 344.2 828.878 343.28 829.778 341.82L828.418 340.88C827.798 341.94 826.838 342.62 825.298 342.62C823.318 342.62 821.898 341.2 821.838 339.34H830.038C830.058 339.12 830.058 339 830.058 338.82C830.058 335.62 827.898 333.8 825.298 333.8C822.238 333.8 820.098 336.06 820.098 339C820.098 341.94 822.158 344.2 825.278 344.2ZM821.958 337.94C822.278 336.28 823.738 335.32 825.238 335.32C826.758 335.32 828.038 336.3 828.298 337.94H821.958ZM836.759 344.2C838.059 344.2 839.219 343.76 840.019 342.9V344H841.739V329.4H840.019V335.1C839.219 334.24 838.059 333.8 836.759 333.8C833.779 333.8 831.719 336.16 831.719 339C831.719 341.84 833.779 344.2 836.759 344.2ZM836.899 342.62C834.899 342.62 833.499 341 833.499 339C833.499 337 834.899 335.38 836.899 335.38C838.399 335.38 839.439 336.08 840.019 337.02V340.96C839.439 341.9 838.399 342.62 836.899 342.62ZM851.524 344V337.36C851.924 336.18 852.864 335.38 854.284 335.38C855.824 335.38 856.784 336.36 856.784 338.12V344H858.484V337.86C858.484 335.36 856.924 333.8 854.684 333.8C853.404 333.8 852.224 334.24 851.524 335.26V329.4H849.804V344H851.524ZM865.981 344.2C868.061 344.2 869.581 343.28 870.481 341.82L869.121 340.88C868.501 341.94 867.541 342.62 866.001 342.62C864.021 342.62 862.601 341.2 862.541 339.34H870.741C870.761 339.12 870.761 339 870.761 338.82C870.761 335.62 868.601 333.8 866.001 333.8C862.941 333.8 860.801 336.06 860.801 339C860.801 341.94 862.861 344.2 865.981 344.2ZM862.661 337.94C862.981 336.28 864.441 335.32 865.941 335.32C867.461 335.32 868.741 336.3 869.001 337.94H862.661ZM877.462 344.2C878.762 344.2 879.922 343.76 880.722 342.9V344H882.442V329.4H880.722V335.1C879.922 334.24 878.762 333.8 877.462 333.8C874.482 333.8 872.422 336.16 872.422 339C872.422 341.84 874.482 344.2 877.462 344.2ZM877.602 342.62C875.602 342.62 874.202 341 874.202 339C874.202 337 875.602 335.38 877.602 335.38C879.102 335.38 880.142 336.08 880.722 337.02V340.96C880.142 341.9 879.102 342.62 877.602 342.62ZM889.942 348.08C892.643 348.08 894.943 346.6 894.943 343.4V334H893.223V335.1C892.423 334.24 891.243 333.8 889.963 333.8C887.023 333.8 884.903 336.04 884.903 338.84C884.903 341.64 887.002 343.9 889.963 343.9C891.243 343.9 892.423 343.46 893.223 342.58V343.34C893.223 345.58 891.523 346.52 889.942 346.52C888.503 346.52 887.423 345.98 886.623 345.04L885.443 346.24C886.303 347.3 887.883 348.08 889.942 348.08ZM890.103 342.3C888.123 342.3 886.683 340.82 886.683 338.84C886.683 336.9 888.103 335.38 890.103 335.38C891.603 335.38 892.643 336.08 893.223 337.02V340.66C892.643 341.6 891.603 342.3 890.103 342.3ZM899.062 331.72C899.763 331.72 900.283 331.2 900.283 330.5C900.283 329.84 899.763 329.28 899.062 329.28C898.363 329.28 897.823 329.84 897.823 330.5C897.823 331.2 898.363 331.72 899.062 331.72ZM898.183 344H899.903V334H898.183V344ZM903.163 344H904.883V337.36C905.283 336.18 906.223 335.38 907.643 335.38C909.183 335.38 910.143 336.36 910.143 338.12V344H911.843V337.86C911.843 335.36 910.283 333.8 908.043 333.8C906.763 333.8 905.583 334.24 904.883 335.26V334H903.163V344ZM919.2 348.08C921.9 348.08 924.2 346.6 924.2 343.4V334H922.48V335.1C921.68 334.24 920.5 333.8 919.22 333.8C916.28 333.8 914.16 336.04 914.16 338.84C914.16 341.64 916.26 343.9 919.22 343.9C920.5 343.9 921.68 343.46 922.48 342.58V343.34C922.48 345.58 920.78 346.52 919.2 346.52C917.76 346.52 916.68 345.98 915.88 345.04L914.7 346.24C915.56 347.3 917.14 348.08 919.2 348.08ZM919.36 342.3C917.38 342.3 915.94 340.82 915.94 338.84C915.94 336.9 917.36 335.38 919.36 335.38C920.86 335.38 921.9 336.08 922.48 337.02V340.66C921.9 341.6 920.86 342.3 919.36 342.3ZM936.525 344.2C937.825 344.2 938.985 343.76 939.785 342.9V344H941.505V334H939.785V335.1C938.985 334.24 937.825 333.8 936.525 333.8C933.545 333.8 931.485 336.16 931.485 339C931.485 341.84 933.545 344.2 936.525 344.2ZM936.665 342.62C934.665 342.62 933.265 341 933.265 339C933.265 337 934.665 335.38 936.665 335.38C938.165 335.38 939.205 336.08 939.785 337.02V340.96C939.205 341.9 938.165 342.62 936.665 342.62ZM944.745 344H946.465V329.4H944.745V344ZM949.725 344H951.445V329.4H949.725V344ZM959.146 344.2C962.146 344.2 964.366 341.88 964.366 339C964.366 336.12 962.146 333.8 959.146 333.8C956.106 333.8 953.906 336.12 953.906 339C953.906 341.88 956.106 344.2 959.146 344.2ZM959.146 342.6C957.066 342.6 955.666 341 955.666 339C955.666 337 957.066 335.4 959.146 335.4C961.226 335.4 962.606 337 962.606 339C962.606 341 961.226 342.6 959.146 342.6ZM975.276 344H976.796L980.196 334H978.376L975.956 341.3L973.456 334H972.136L969.636 341.3L967.216 334H965.416L968.816 344H970.336L972.796 336.82L975.276 344ZM985.05 344.2C987.05 344.2 988.53 343.12 988.53 341.2C988.53 339.68 987.55 338.8 985.81 338.26L984.71 337.92C983.59 337.58 983.29 337.1 983.29 336.48C983.29 335.74 984.09 335.28 984.95 335.28C985.91 335.28 986.57 335.78 987.03 336.42L988.31 335.54C987.65 334.42 986.51 333.8 985.01 333.8C983.11 333.8 981.57 334.84 981.57 336.54C981.57 337.96 982.41 338.98 984.07 339.46L985.07 339.78C986.37 340.18 986.81 340.62 986.81 341.34C986.81 342.2 986.03 342.68 985.07 342.68C983.95 342.68 982.91 342.12 982.53 341.1L981.13 341.88C981.75 343.46 983.27 344.2 985.05 344.2ZM998.19 347.88L1004.61 334H1002.69L999.27 341.6L995.83 334H993.93L998.31 343.48L996.27 347.88H998.19ZM1010.55 344.2C1013.55 344.2 1015.77 341.88 1015.77 339C1015.77 336.12 1013.55 333.8 1010.55 333.8C1007.51 333.8 1005.31 336.12 1005.31 339C1005.31 341.88 1007.51 344.2 1010.55 344.2ZM1010.55 342.6C1008.47 342.6 1007.07 341 1007.07 339C1007.07 337 1008.47 335.4 1010.55 335.4C1012.63 335.4 1014.01 337 1014.01 339C1014.01 341 1012.63 342.6 1010.55 342.6ZM1026.58 334H1024.86V340.64C1024.44 341.82 1023.5 342.62 1022.22 342.62C1020.72 342.62 1019.82 341.64 1019.82 339.88V334H1018.1V340.14C1018.1 342.64 1019.64 344.2 1021.84 344.2C1022.96 344.2 1024.16 343.76 1024.86 342.74V344H1026.58V334ZM1038.42 344.1C1039.44 344.1 1040.16 343.86 1040.58 343.64L1040.06 342.18C1039.76 342.36 1039.28 342.56 1038.62 342.56C1037.72 342.56 1037.02 342.1 1037.02 340.82V335.58H1040.12V334H1037.02V331.16H1035.3V334H1032.78V335.58H1035.3V341.04C1035.3 343.12 1036.74 344.1 1038.42 344.1ZM1046.7 344.2C1049.7 344.2 1051.92 341.88 1051.92 339C1051.92 336.12 1049.7 333.8 1046.7 333.8C1043.66 333.8 1041.46 336.12 1041.46 339C1041.46 341.88 1043.66 344.2 1046.7 344.2ZM1046.7 342.6C1044.62 342.6 1043.22 341 1043.22 339C1043.22 337 1044.62 335.4 1046.7 335.4C1048.78 335.4 1050.16 337 1050.16 339C1050.16 341 1048.78 342.6 1046.7 342.6ZM1063.48 344.2C1064.78 344.2 1065.94 343.76 1066.74 342.9V344H1068.46V334H1066.74V335.1C1065.94 334.24 1064.78 333.8 1063.48 333.8C1060.5 333.8 1058.44 336.16 1058.44 339C1058.44 341.84 1060.5 344.2 1063.48 344.2ZM1063.62 342.62C1061.62 342.62 1060.22 341 1060.22 339C1060.22 337 1061.62 335.38 1063.62 335.38C1065.12 335.38 1066.16 336.08 1066.74 337.02V340.96C1066.16 341.9 1065.12 342.62 1063.62 342.62ZM1076.16 344.2C1078.24 344.2 1079.9 343.12 1080.78 341.52L1079.28 340.68C1078.72 341.82 1077.6 342.6 1076.16 342.6C1074.08 342.6 1072.66 341 1072.66 339C1072.66 337 1074.08 335.4 1076.16 335.4C1077.6 335.4 1078.72 336.18 1079.28 337.32L1080.78 336.48C1079.9 334.88 1078.24 333.8 1076.16 333.8C1073.12 333.8 1070.92 336.1 1070.92 339C1070.92 341.9 1073.12 344.2 1076.16 344.2ZM1087.47 344.2C1089.55 344.2 1091.21 343.12 1092.09 341.52L1090.59 340.68C1090.03 341.82 1088.91 342.6 1087.47 342.6C1085.39 342.6 1083.97 341 1083.97 339C1083.97 337 1085.39 335.4 1087.47 335.4C1088.91 335.4 1090.03 336.18 1090.59 337.32L1092.09 336.48C1091.21 334.88 1089.55 333.8 1087.47 333.8C1084.43 333.8 1082.23 336.1 1082.23 339C1082.23 341.9 1084.43 344.2 1087.47 344.2ZM1098.72 344.2C1100.8 344.2 1102.32 343.28 1103.22 341.82L1101.86 340.88C1101.24 341.94 1100.28 342.62 1098.74 342.62C1096.76 342.62 1095.34 341.2 1095.28 339.34H1103.48C1103.5 339.12 1103.5 339 1103.5 338.82C1103.5 335.62 1101.34 333.8 1098.74 333.8C1095.68 333.8 1093.54 336.06 1093.54 339C1093.54 341.94 1095.6 344.2 1098.72 344.2ZM1095.4 337.94C1095.72 336.28 1097.18 335.32 1098.68 335.32C1100.2 335.32 1101.48 336.3 1101.74 337.94H1095.4ZM1105.94 347.88H1107.66V342.9C1108.48 343.76 1109.64 344.2 1110.92 344.2C1113.9 344.2 1115.96 341.84 1115.96 339C1115.96 336.16 1113.9 333.8 1110.92 333.8C1109.64 333.8 1108.48 334.24 1107.66 335.1V334H1105.94V347.88ZM1110.78 342.62C1109.28 342.62 1108.24 341.9 1107.66 340.96V337.02C1108.24 336.08 1109.28 335.38 1110.78 335.38C1112.78 335.38 1114.18 337 1114.18 339C1114.18 341 1112.78 342.62 1110.78 342.62ZM1122.48 344.1C1123.5 344.1 1124.22 343.86 1124.64 343.64L1124.12 342.18C1123.82 342.36 1123.34 342.56 1122.68 342.56C1121.78 342.56 1121.08 342.1 1121.08 340.82V335.58H1124.18V334H1121.08V331.16H1119.36V334H1116.84V335.58H1119.36V341.04C1119.36 343.12 1120.8 344.1 1122.48 344.1ZM1135.59 344.2C1136.89 344.2 1138.05 343.76 1138.85 342.9V344H1140.57V334H1138.85V335.1C1138.05 334.24 1136.89 333.8 1135.59 333.8C1132.61 333.8 1130.55 336.16 1130.55 339C1130.55 341.84 1132.61 344.2 1135.59 344.2ZM1135.73 342.62C1133.73 342.62 1132.33 341 1132.33 339C1132.33 337 1133.73 335.38 1135.73 335.38C1137.23 335.38 1138.27 336.08 1138.85 337.02V340.96C1138.27 341.9 1137.23 342.62 1135.73 342.62ZM1143.81 344H1145.53V337.36C1145.93 336.18 1146.87 335.38 1148.29 335.38C1149.83 335.38 1150.79 336.36 1150.79 338.12V344H1152.49V337.86C1152.49 335.36 1150.93 333.8 1148.69 333.8C1147.41 333.8 1146.23 334.24 1145.53 335.26V334H1143.81V344ZM1158.17 347.88L1164.59 334H1162.67L1159.25 341.6L1155.81 334H1153.91L1158.29 343.48L1156.25 347.88H1158.17ZM741.08 370.2C743.16 370.2 744.82 369.12 745.7 367.52L744.2 366.68C743.64 367.82 742.52 368.6 741.08 368.6C739 368.6 737.58 367 737.58 365C737.58 363 739 361.4 741.08 361.4C742.52 361.4 743.64 362.18 744.2 363.32L745.7 362.48C744.82 360.88 743.16 359.8 741.08 359.8C738.04 359.8 735.84 362.1 735.84 365C735.84 367.9 738.04 370.2 741.08 370.2ZM747.929 370H749.649V363.52C750.049 362.26 751.129 361.6 752.149 361.6C752.449 361.6 752.709 361.62 753.009 361.72L753.229 360C752.969 359.94 752.689 359.9 752.349 359.9C751.149 359.9 750.029 360.66 749.649 361.48V360H747.929V370ZM757.916 373.88L764.336 360H762.416L758.996 367.6L755.556 360H753.656L758.036 369.48L755.996 373.88H757.916ZM766.054 373.88H767.774V368.9C768.594 369.76 769.754 370.2 771.034 370.2C774.014 370.2 776.074 367.84 776.074 365C776.074 362.16 774.014 359.8 771.034 359.8C769.754 359.8 768.594 360.24 767.774 361.1V360H766.054V373.88ZM770.894 368.62C769.394 368.62 768.354 367.9 767.774 366.96V363.02C768.354 362.08 769.394 361.38 770.894 361.38C772.894 361.38 774.294 363 774.294 365C774.294 367 772.894 368.62 770.894 368.62ZM782.599 370.1C783.619 370.1 784.339 369.86 784.759 369.64L784.239 368.18C783.939 368.36 783.459 368.56 782.799 368.56C781.899 368.56 781.199 368.1 781.199 366.82V361.58H784.299V360H781.199V357.16H779.479V360H776.959V361.58H779.479V367.04C779.479 369.12 780.919 370.1 782.599 370.1ZM790.884 370.2C793.884 370.2 796.104 367.88 796.104 365C796.104 362.12 793.884 359.8 790.884 359.8C787.844 359.8 785.644 362.12 785.644 365C785.644 367.88 787.844 370.2 790.884 370.2ZM790.884 368.6C788.804 368.6 787.404 367 787.404 365C787.404 363 788.804 361.4 790.884 361.4C792.964 361.4 794.344 363 794.344 365C794.344 367 792.964 368.6 790.884 368.6ZM803.033 370.2C805.113 370.2 806.773 369.12 807.653 367.52L806.153 366.68C805.593 367.82 804.473 368.6 803.033 368.6C800.953 368.6 799.533 367 799.533 365C799.533 363 800.953 361.4 803.033 361.4C804.473 361.4 805.593 362.18 806.153 363.32L807.653 362.48C806.773 360.88 805.113 359.8 803.033 359.8C799.993 359.8 797.793 362.1 797.793 365C797.793 367.9 799.993 370.2 803.033 370.2ZM818.222 360H816.502V366.64C816.082 367.82 815.142 368.62 813.862 368.62C812.362 368.62 811.462 367.64 811.462 365.88V360H809.742V366.14C809.742 368.64 811.282 370.2 813.482 370.2C814.602 370.2 815.802 369.76 816.502 368.74V370H818.222V360ZM821.464 370H823.184V363.52C823.584 362.26 824.664 361.6 825.684 361.6C825.984 361.6 826.244 361.62 826.544 361.72L826.764 360C826.504 359.94 826.224 359.9 825.884 359.9C824.684 359.9 823.564 360.66 823.184 361.48V360H821.464V370ZM828.651 370H830.371V363.52C830.771 362.26 831.851 361.6 832.871 361.6C833.171 361.6 833.431 361.62 833.731 361.72L833.951 360C833.691 359.94 833.411 359.9 833.071 359.9C831.871 359.9 830.751 360.66 830.371 361.48V360H828.651V370ZM839.868 370.2C841.948 370.2 843.468 369.28 844.368 367.82L843.008 366.88C842.388 367.94 841.428 368.62 839.888 368.62C837.908 368.62 836.488 367.2 836.428 365.34H844.628C844.648 365.12 844.648 365 844.648 364.82C844.648 361.62 842.488 359.8 839.888 359.8C836.828 359.8 834.688 362.06 834.688 365C834.688 367.94 836.748 370.2 839.868 370.2ZM836.548 363.94C836.868 362.28 838.328 361.32 839.828 361.32C841.348 361.32 842.628 362.3 842.888 363.94H836.548ZM847.089 370H848.809V363.36C849.209 362.18 850.149 361.38 851.569 361.38C853.109 361.38 854.069 362.36 854.069 364.12V370H855.769V363.86C855.769 361.36 854.209 359.8 851.969 359.8C850.689 359.8 849.509 360.24 848.809 361.26V360H847.089V370ZM863.326 370.2C865.406 370.2 867.066 369.12 867.946 367.52L866.446 366.68C865.886 367.82 864.766 368.6 863.326 368.6C861.246 368.6 859.826 367 859.826 365C859.826 363 861.246 361.4 863.326 361.4C864.766 361.4 865.886 362.18 866.446 363.32L867.946 362.48C867.066 360.88 865.406 359.8 863.326 359.8C860.286 359.8 858.086 362.1 858.086 365C858.086 367.9 860.286 370.2 863.326 370.2ZM872.955 373.88L879.375 360H877.455L874.035 367.6L870.595 360H868.695L873.075 369.48L871.035 373.88H872.955ZM886.196 370H887.916V361.58H891.316V360H887.916V358.64C887.916 357.54 888.476 356.86 889.496 356.86C890.056 356.86 890.556 357.08 890.856 357.22L891.496 355.78C891.036 355.54 890.376 355.28 889.416 355.28C887.416 355.28 886.196 356.56 886.196 358.54V360H883.836V361.58H886.196V370ZM893.163 370H894.883V363.52C895.283 362.26 896.363 361.6 897.383 361.6C897.683 361.6 897.943 361.62 898.243 361.72L898.463 360C898.203 359.94 897.923 359.9 897.583 359.9C896.383 359.9 895.263 360.66 894.883 361.48V360H893.163V370ZM904.419 370.2C907.419 370.2 909.639 367.88 909.639 365C909.639 362.12 907.419 359.8 904.419 359.8C901.379 359.8 899.179 362.12 899.179 365C899.179 367.88 901.379 370.2 904.419 370.2ZM904.419 368.6C902.339 368.6 900.939 367 900.939 365C900.939 363 902.339 361.4 904.419 361.4C906.499 361.4 907.879 363 907.879 365C907.879 367 906.499 368.6 904.419 368.6ZM924.988 370H926.708V363.86C926.708 361.4 925.348 359.8 922.968 359.8C921.688 359.8 920.408 360.26 919.608 361.44C918.988 360.4 917.948 359.8 916.688 359.8C915.628 359.8 914.528 360.18 913.828 361.06V360H912.108V370H913.828V363.14C914.208 362.1 915.088 361.38 916.288 361.38C917.708 361.38 918.548 362.44 918.548 364.14V370H920.268V363.86C920.268 363.68 920.248 363.52 920.228 363.34C920.608 362.16 921.448 361.38 922.708 361.38C924.148 361.38 924.988 362.44 924.988 364.14V370ZM938.4 370.1C939.42 370.1 940.14 369.86 940.56 369.64L940.04 368.18C939.74 368.36 939.26 368.56 938.6 368.56C937.7 368.56 937 368.1 937 366.82V361.58H940.1V360H937V357.16H935.28V360H932.76V361.58H935.28V367.04C935.28 369.12 936.72 370.1 938.4 370.1ZM944.141 370V363.36C944.541 362.18 945.481 361.38 946.901 361.38C948.441 361.38 949.401 362.36 949.401 364.12V370H951.101V363.86C951.101 361.36 949.541 359.8 947.301 359.8C946.021 359.8 944.841 360.24 944.141 361.26V355.4H942.421V370H944.141ZM958.598 370.2C960.678 370.2 962.198 369.28 963.098 367.82L961.738 366.88C961.118 367.94 960.158 368.62 958.618 368.62C956.638 368.62 955.218 367.2 955.158 365.34H963.358C963.378 365.12 963.378 365 963.378 364.82C963.378 361.62 961.218 359.8 958.618 359.8C955.558 359.8 953.418 362.06 953.418 365C953.418 367.94 955.478 370.2 958.598 370.2ZM955.278 363.94C955.598 362.28 957.058 361.32 958.558 361.32C960.078 361.32 961.358 362.3 961.618 363.94H955.278ZM978.983 360H977.263V366.64C976.843 367.82 975.903 368.62 974.623 368.62C973.123 368.62 972.223 367.64 972.223 365.88V360H970.503V366.14C970.503 368.64 972.043 370.2 974.243 370.2C975.363 370.2 976.563 369.76 977.263 368.74V370H978.983V360ZM985.245 370.2C987.245 370.2 988.725 369.12 988.725 367.2C988.725 365.68 987.745 364.8 986.005 364.26L984.905 363.92C983.785 363.58 983.485 363.1 983.485 362.48C983.485 361.74 984.285 361.28 985.145 361.28C986.105 361.28 986.765 361.78 987.225 362.42L988.505 361.54C987.845 360.42 986.705 359.8 985.205 359.8C983.305 359.8 981.765 360.84 981.765 362.54C981.765 363.96 982.605 364.98 984.265 365.46L985.265 365.78C986.565 366.18 987.005 366.62 987.005 367.34C987.005 368.2 986.225 368.68 985.265 368.68C984.145 368.68 983.105 368.12 982.725 367.1L981.325 367.88C981.945 369.46 983.465 370.2 985.245 370.2ZM995.629 370.2C997.709 370.2 999.229 369.28 1000.13 367.82L998.769 366.88C998.149 367.94 997.189 368.62 995.649 368.62C993.669 368.62 992.249 367.2 992.189 365.34H1000.39C1000.41 365.12 1000.41 365 1000.41 364.82C1000.41 361.62 998.249 359.8 995.649 359.8C992.589 359.8 990.449 362.06 990.449 365C990.449 367.94 992.509 370.2 995.629 370.2ZM992.309 363.94C992.629 362.28 994.089 361.32 995.589 361.32C997.109 361.32 998.389 362.3 998.649 363.94H992.309ZM1002.85 370H1004.57V363.52C1004.97 362.26 1006.05 361.6 1007.07 361.6C1007.37 361.6 1007.63 361.62 1007.93 361.72L1008.15 360C1007.89 359.94 1007.61 359.9 1007.27 359.9C1006.07 359.9 1004.95 360.66 1004.57 361.48V360H1002.85V370ZM1008.82 373.08H1009.9L1011.14 370.02V367.52H1008.66V370H1009.76L1008.82 373.08ZM1023.18 370.2C1024.48 370.2 1025.64 369.76 1026.44 368.9V370H1028.16V360H1026.44V361.1C1025.64 360.24 1024.48 359.8 1023.18 359.8C1020.2 359.8 1018.14 362.16 1018.14 365C1018.14 367.84 1020.2 370.2 1023.18 370.2ZM1023.32 368.62C1021.32 368.62 1019.92 367 1019.92 365C1019.92 363 1021.32 361.38 1023.32 361.38C1024.82 361.38 1025.86 362.08 1026.44 363.02V366.96C1025.86 367.9 1024.82 368.62 1023.32 368.62ZM1031.41 370H1033.13V363.36C1033.53 362.18 1034.47 361.38 1035.89 361.38C1037.43 361.38 1038.39 362.36 1038.39 364.12V370H1040.09V363.86C1040.09 361.36 1038.53 359.8 1036.29 359.8C1035.01 359.8 1033.83 360.24 1033.13 361.26V360H1031.41V370ZM1047.44 370.2C1048.74 370.2 1049.9 369.76 1050.7 368.9V370H1052.42V355.4H1050.7V361.1C1049.9 360.24 1048.74 359.8 1047.44 359.8C1044.46 359.8 1042.4 362.16 1042.4 365C1042.4 367.84 1044.46 370.2 1047.44 370.2ZM1047.58 368.62C1045.58 368.62 1044.18 367 1044.18 365C1044.18 363 1045.58 361.38 1047.58 361.38C1049.08 361.38 1050.12 362.08 1050.7 363.02V366.96C1050.12 367.9 1049.08 368.62 1047.58 368.62ZM1068.62 370H1070.14L1073.54 360H1071.72L1069.3 367.3L1066.8 360H1065.48L1062.98 367.3L1060.56 360H1058.76L1062.16 370H1063.68L1066.14 362.82L1068.62 370ZM1076.27 357.72C1076.97 357.72 1077.49 357.2 1077.49 356.5C1077.49 355.84 1076.97 355.28 1076.27 355.28C1075.57 355.28 1075.03 355.84 1075.03 356.5C1075.03 357.2 1075.57 357.72 1076.27 357.72ZM1075.39 370H1077.11V360H1075.39V370ZM1084.65 370.1C1085.67 370.1 1086.39 369.86 1086.81 369.64L1086.29 368.18C1085.99 368.36 1085.51 368.56 1084.85 368.56C1083.95 368.56 1083.25 368.1 1083.25 366.82V361.58H1086.35V360H1083.25V357.16H1081.53V360H1079.01V361.58H1081.53V367.04C1081.53 369.12 1082.97 370.1 1084.65 370.1ZM1090.39 370V363.36C1090.79 362.18 1091.73 361.38 1093.15 361.38C1094.69 361.38 1095.65 362.36 1095.65 364.12V370H1097.35V363.86C1097.35 361.36 1095.79 359.8 1093.55 359.8C1092.27 359.8 1091.09 360.24 1090.39 361.26V355.4H1088.67V370H1090.39ZM1104.89 370.2C1107.89 370.2 1110.11 367.88 1110.11 365C1110.11 362.12 1107.89 359.8 1104.89 359.8C1101.85 359.8 1099.65 362.12 1099.65 365C1099.65 367.88 1101.85 370.2 1104.89 370.2ZM1104.89 368.6C1102.81 368.6 1101.41 367 1101.41 365C1101.41 363 1102.81 361.4 1104.89 361.4C1106.97 361.4 1108.35 363 1108.35 365C1108.35 367 1106.97 368.6 1104.89 368.6ZM1120.92 360H1119.2V366.64C1118.78 367.82 1117.84 368.62 1116.56 368.62C1115.06 368.62 1114.16 367.64 1114.16 365.88V360H1112.44V366.14C1112.44 368.64 1113.98 370.2 1116.18 370.2C1117.3 370.2 1118.5 369.76 1119.2 368.74V370H1120.92V360ZM1128.44 370.1C1129.46 370.1 1130.18 369.86 1130.6 369.64L1130.08 368.18C1129.78 368.36 1129.3 368.56 1128.64 368.56C1127.74 368.56 1127.04 368.1 1127.04 366.82V361.58H1130.14V360H1127.04V357.16H1125.32V360H1122.8V361.58H1125.32V367.04C1125.32 369.12 1126.76 370.1 1128.44 370.1ZM1137.28 370H1139V355.4H1137.28V370ZM1146.7 370.2C1149.7 370.2 1151.92 367.88 1151.92 365C1151.92 362.12 1149.7 359.8 1146.7 359.8C1143.66 359.8 1141.46 362.12 1141.46 365C1141.46 367.88 1143.66 370.2 1146.7 370.2ZM1146.7 368.6C1144.62 368.6 1143.22 367 1143.22 365C1143.22 363 1144.62 361.4 1146.7 361.4C1148.78 361.4 1150.16 363 1150.16 365C1150.16 367 1148.78 368.6 1146.7 368.6ZM1157.39 370.2C1159.39 370.2 1160.87 369.12 1160.87 367.2C1160.87 365.68 1159.89 364.8 1158.15 364.26L1157.05 363.92C1155.93 363.58 1155.63 363.1 1155.63 362.48C1155.63 361.74 1156.43 361.28 1157.29 361.28C1158.25 361.28 1158.91 361.78 1159.37 362.42L1160.65 361.54C1159.99 360.42 1158.85 359.8 1157.35 359.8C1155.45 359.8 1153.91 360.84 1153.91 362.54C1153.91 363.96 1154.75 364.98 1156.41 365.46L1157.41 365.78C1158.71 366.18 1159.15 366.62 1159.15 367.34C1159.15 368.2 1158.37 368.68 1157.41 368.68C1156.29 368.68 1155.25 368.12 1154.87 367.1L1153.47 367.88C1154.09 369.46 1155.61 370.2 1157.39 370.2ZM1164.26 357.72C1164.96 357.72 1165.48 357.2 1165.48 356.5C1165.48 355.84 1164.96 355.28 1164.26 355.28C1163.56 355.28 1163.02 355.84 1163.02 356.5C1163.02 357.2 1163.56 357.72 1164.26 357.72ZM1163.38 370H1165.1V360H1163.38V370ZM1168.36 370H1170.08V363.36C1170.48 362.18 1171.42 361.38 1172.84 361.38C1174.38 361.38 1175.34 362.36 1175.34 364.12V370H1177.04V363.86C1177.04 361.36 1175.48 359.8 1173.24 359.8C1171.96 359.8 1170.78 360.24 1170.08 361.26V360H1168.36V370ZM1184.4 374.08C1187.1 374.08 1189.4 372.6 1189.4 369.4V360H1187.68V361.1C1186.88 360.24 1185.7 359.8 1184.42 359.8C1181.48 359.8 1179.36 362.04 1179.36 364.84C1179.36 367.64 1181.46 369.9 1184.42 369.9C1185.7 369.9 1186.88 369.46 1187.68 368.58V369.34C1187.68 371.58 1185.98 372.52 1184.4 372.52C1182.96 372.52 1181.88 371.98 1181.08 371.04L1179.9 372.24C1180.76 373.3 1182.34 374.08 1184.4 374.08ZM1184.56 368.3C1182.58 368.3 1181.14 366.82 1181.14 364.84C1181.14 362.9 1182.56 361.38 1184.56 361.38C1186.06 361.38 1187.1 362.08 1187.68 363.02V366.66C1187.1 367.6 1186.06 368.3 1184.56 368.3ZM749.5 396H751.22V389.86C751.22 387.4 749.86 385.8 747.48 385.8C746.2 385.8 744.92 386.26 744.12 387.44C743.5 386.4 742.46 385.8 741.2 385.8C740.14 385.8 739.04 386.18 738.34 387.06V386H736.62V396H738.34V389.14C738.72 388.1 739.6 387.38 740.8 387.38C742.22 387.38 743.06 388.44 743.06 390.14V396H744.78V389.86C744.78 389.68 744.76 389.52 744.74 389.34C745.12 388.16 745.96 387.38 747.22 387.38C748.66 387.38 749.5 388.44 749.5 390.14V396ZM758.755 396.2C761.755 396.2 763.975 393.88 763.975 391C763.975 388.12 761.755 385.8 758.755 385.8C755.715 385.8 753.515 388.12 753.515 391C753.515 393.88 755.715 396.2 758.755 396.2ZM758.755 394.6C756.675 394.6 755.275 393 755.275 391C755.275 389 756.675 387.4 758.755 387.4C760.835 387.4 762.215 389 762.215 391C762.215 393 760.835 394.6 758.755 394.6ZM766.444 396H768.164V389.36C768.564 388.18 769.504 387.38 770.924 387.38C772.464 387.38 773.424 388.36 773.424 390.12V396H775.124V389.86C775.124 387.36 773.564 385.8 771.324 385.8C770.044 385.8 768.864 386.24 768.164 387.26V386H766.444V396ZM782.622 396.2C784.702 396.2 786.222 395.28 787.122 393.82L785.762 392.88C785.142 393.94 784.182 394.62 782.642 394.62C780.662 394.62 779.242 393.2 779.182 391.34H787.382C787.402 391.12 787.402 391 787.402 390.82C787.402 387.62 785.242 385.8 782.642 385.8C779.582 385.8 777.442 388.06 777.442 391C777.442 393.94 779.502 396.2 782.622 396.2ZM779.302 389.94C779.622 388.28 781.082 387.32 782.582 387.32C784.102 387.32 785.382 388.3 785.642 389.94H779.302ZM792.486 399.88L798.906 386H796.986L793.566 393.6L790.126 386H788.226L792.606 395.48L790.566 399.88H792.486ZM809.439 396.2C812.439 396.2 814.659 393.88 814.659 391C814.659 388.12 812.439 385.8 809.439 385.8C806.399 385.8 804.199 388.12 804.199 391C804.199 393.88 806.399 396.2 809.439 396.2ZM809.439 394.6C807.359 394.6 805.959 393 805.959 391C805.959 389 807.359 387.4 809.439 387.4C811.519 387.4 812.899 389 812.899 391C812.899 393 811.519 394.6 809.439 394.6ZM817.128 396H818.848V389.36C819.248 388.18 820.188 387.38 821.608 387.38C823.148 387.38 824.108 388.36 824.108 390.12V396H825.808V389.86C825.808 387.36 824.248 385.8 822.008 385.8C820.728 385.8 819.548 386.24 818.848 387.26V386H817.128V396ZM836.4 396H837.84L842.46 386H840.54L837.12 393.58L833.7 386H831.78L836.4 396ZM848.423 396.2C851.423 396.2 853.643 393.88 853.643 391C853.643 388.12 851.423 385.8 848.423 385.8C845.383 385.8 843.183 388.12 843.183 391C843.183 393.88 845.383 396.2 848.423 396.2ZM848.423 394.6C846.343 394.6 844.943 393 844.943 391C844.943 389 846.343 387.4 848.423 387.4C850.503 387.4 851.883 389 851.883 391C851.883 393 850.503 394.6 848.423 394.6ZM856.112 396H857.832V381.4H856.112V396ZM865.353 396.2C866.653 396.2 867.813 395.76 868.613 394.9V396H870.333V386H868.613V387.1C867.813 386.24 866.653 385.8 865.353 385.8C862.373 385.8 860.313 388.16 860.313 391C860.313 393.84 862.373 396.2 865.353 396.2ZM865.493 394.62C863.493 394.62 862.093 393 862.093 391C862.093 389 863.493 387.38 865.493 387.38C866.993 387.38 868.033 388.08 868.613 389.02V392.96C868.033 393.9 866.993 394.62 865.493 394.62ZM877.853 396.1C878.873 396.1 879.593 395.86 880.013 395.64L879.493 394.18C879.193 394.36 878.713 394.56 878.053 394.56C877.153 394.56 876.453 394.1 876.453 392.82V387.58H879.553V386H876.453V383.16H874.733V386H872.213V387.58H874.733V393.04C874.733 395.12 876.173 396.1 877.853 396.1ZM882.754 383.72C883.454 383.72 883.974 383.2 883.974 382.5C883.974 381.84 883.454 381.28 882.754 381.28C882.054 381.28 881.514 381.84 881.514 382.5C881.514 383.2 882.054 383.72 882.754 383.72ZM881.874 396H883.594V386H881.874V396ZM886.854 396H888.574V381.4H886.854V396ZM892.715 383.72C893.415 383.72 893.935 383.2 893.935 382.5C893.935 381.84 893.415 381.28 892.715 381.28C892.015 381.28 891.475 381.84 891.475 382.5C891.475 383.2 892.015 383.72 892.715 383.72ZM891.835 396H893.555V386H891.835V396ZM901.095 396.1C902.115 396.1 902.835 395.86 903.255 395.64L902.735 394.18C902.435 394.36 901.955 394.56 901.295 394.56C900.395 394.56 899.695 394.1 899.695 392.82V387.58H902.795V386H899.695V383.16H897.975V386H895.455V387.58H897.975V393.04C897.975 395.12 899.415 396.1 901.095 396.1ZM907.916 399.88L914.336 386H912.416L908.996 393.6L905.556 386H903.656L908.036 395.48L905.996 399.88H907.916ZM914.957 399.08H916.037L917.277 396.02V393.52H914.797V396H915.897L914.957 399.08ZM929.518 396.2C931.598 396.2 933.258 395.12 934.138 393.52L932.638 392.68C932.078 393.82 930.958 394.6 929.518 394.6C927.438 394.6 926.018 393 926.018 391C926.018 389 927.438 387.4 929.518 387.4C930.958 387.4 932.078 388.18 932.638 389.32L934.138 388.48C933.258 386.88 931.598 385.8 929.518 385.8C926.478 385.8 924.278 388.1 924.278 391C924.278 393.9 926.478 396.2 929.518 396.2ZM940.806 396.2C943.806 396.2 946.026 393.88 946.026 391C946.026 388.12 943.806 385.8 940.806 385.8C937.766 385.8 935.566 388.12 935.566 391C935.566 393.88 937.766 396.2 940.806 396.2ZM940.806 394.6C938.726 394.6 937.326 393 937.326 391C937.326 389 938.726 387.4 940.806 387.4C942.886 387.4 944.266 389 944.266 391C944.266 393 942.886 394.6 940.806 394.6ZM948.495 396H950.215V389.36C950.615 388.18 951.555 387.38 952.975 387.38C954.515 387.38 955.475 388.36 955.475 390.12V396H957.175V389.86C957.175 387.36 955.615 385.8 953.375 385.8C952.095 385.8 950.915 386.24 950.215 387.26V386H948.495V396ZM963.178 396H964.618L969.238 386H967.318L963.898 393.58L960.478 386H958.558L963.178 396ZM975.161 396.2C977.241 396.2 978.761 395.28 979.661 393.82L978.301 392.88C977.681 393.94 976.721 394.62 975.181 394.62C973.201 394.62 971.781 393.2 971.721 391.34H979.921C979.941 391.12 979.941 391 979.941 390.82C979.941 387.62 977.781 385.8 975.181 385.8C972.121 385.8 969.981 388.06 969.981 391C969.981 393.94 972.041 396.2 975.161 396.2ZM971.841 389.94C972.161 388.28 973.621 387.32 975.121 387.32C976.641 387.32 977.921 388.3 978.181 389.94H971.841ZM982.382 396H984.102V389.52C984.502 388.26 985.582 387.6 986.602 387.6C986.902 387.6 987.162 387.62 987.462 387.72L987.682 386C987.422 385.94 987.142 385.9 986.802 385.9C985.602 385.9 984.482 386.66 984.102 387.48V386H982.382V396ZM993.849 396.1C994.869 396.1 995.589 395.86 996.009 395.64L995.489 394.18C995.189 394.36 994.709 394.56 994.049 394.56C993.149 394.56 992.449 394.1 992.449 392.82V387.58H995.549V386H992.449V383.16H990.729V386H988.209V387.58H990.729V393.04C990.729 395.12 992.169 396.1 993.849 396.1ZM1006.47 396.1C1007.49 396.1 1008.21 395.86 1008.63 395.64L1008.11 394.18C1007.81 394.36 1007.33 394.56 1006.67 394.56C1005.77 394.56 1005.07 394.1 1005.07 392.82V387.58H1008.17V386H1005.07V383.16H1003.35V386H1000.83V387.58H1003.35V393.04C1003.35 395.12 1004.79 396.1 1006.47 396.1ZM1012.21 396V389.36C1012.61 388.18 1013.55 387.38 1014.97 387.38C1016.51 387.38 1017.47 388.36 1017.47 390.12V396H1019.17V389.86C1019.17 387.36 1017.61 385.8 1015.37 385.8C1014.09 385.8 1012.91 386.24 1012.21 387.26V381.4H1010.49V396H1012.21ZM1026.66 396.2C1028.74 396.2 1030.26 395.28 1031.16 393.82L1029.8 392.88C1029.18 393.94 1028.22 394.62 1026.68 394.62C1024.7 394.62 1023.28 393.2 1023.22 391.34H1031.42C1031.44 391.12 1031.44 391 1031.44 390.82C1031.44 387.62 1029.28 385.8 1026.68 385.8C1023.62 385.8 1021.48 388.06 1021.48 391C1021.48 393.94 1023.54 396.2 1026.66 396.2ZM1023.34 389.94C1023.66 388.28 1025.12 387.32 1026.62 387.32C1028.14 387.32 1029.42 388.3 1029.68 389.94H1023.34ZM1043.17 396.2C1045.25 396.2 1046.91 395.12 1047.79 393.52L1046.29 392.68C1045.73 393.82 1044.61 394.6 1043.17 394.6C1041.09 394.6 1039.67 393 1039.67 391C1039.67 389 1041.09 387.4 1043.17 387.4C1044.61 387.4 1045.73 388.18 1046.29 389.32L1047.79 388.48C1046.91 386.88 1045.25 385.8 1043.17 385.8C1040.13 385.8 1037.93 388.1 1037.93 391C1037.93 393.9 1040.13 396.2 1043.17 396.2ZM1050.02 396H1051.74V389.52C1052.14 388.26 1053.22 387.6 1054.24 387.6C1054.54 387.6 1054.8 387.62 1055.1 387.72L1055.32 386C1055.06 385.94 1054.78 385.9 1054.44 385.9C1053.24 385.9 1052.12 386.66 1051.74 387.48V386H1050.02V396ZM1060.01 399.88L1066.43 386H1064.51L1061.09 393.6L1057.65 386H1055.75L1060.13 395.48L1058.09 399.88H1060.01ZM1068.14 399.88H1069.86V394.9C1070.68 395.76 1071.84 396.2 1073.12 396.2C1076.1 396.2 1078.16 393.84 1078.16 391C1078.16 388.16 1076.1 385.8 1073.12 385.8C1071.84 385.8 1070.68 386.24 1069.86 387.1V386H1068.14V399.88ZM1072.98 394.62C1071.48 394.62 1070.44 393.9 1069.86 392.96V389.02C1070.44 388.08 1071.48 387.38 1072.98 387.38C1074.98 387.38 1076.38 389 1076.38 391C1076.38 393 1074.98 394.62 1072.98 394.62ZM1084.69 396.1C1085.71 396.1 1086.43 395.86 1086.85 395.64L1086.33 394.18C1086.03 394.36 1085.55 394.56 1084.89 394.56C1083.99 394.56 1083.29 394.1 1083.29 392.82V387.58H1086.39V386H1083.29V383.16H1081.57V386H1079.05V387.58H1081.57V393.04C1081.57 395.12 1083.01 396.1 1084.69 396.1ZM1092.97 396.2C1095.97 396.2 1098.19 393.88 1098.19 391C1098.19 388.12 1095.97 385.8 1092.97 385.8C1089.93 385.8 1087.73 388.12 1087.73 391C1087.73 393.88 1089.93 396.2 1092.97 396.2ZM1092.97 394.6C1090.89 394.6 1089.49 393 1089.49 391C1089.49 389 1090.89 387.4 1092.97 387.4C1095.05 387.4 1096.43 389 1096.43 391C1096.43 393 1095.05 394.6 1092.97 394.6ZM1105.12 396.2C1107.2 396.2 1108.86 395.12 1109.74 393.52L1108.24 392.68C1107.68 393.82 1106.56 394.6 1105.12 394.6C1103.04 394.6 1101.62 393 1101.62 391C1101.62 389 1103.04 387.4 1105.12 387.4C1106.56 387.4 1107.68 388.18 1108.24 389.32L1109.74 388.48C1108.86 386.88 1107.2 385.8 1105.12 385.8C1102.08 385.8 1099.88 388.1 1099.88 391C1099.88 393.9 1102.08 396.2 1105.12 396.2ZM1120.31 386H1118.59V392.64C1118.17 393.82 1117.23 394.62 1115.95 394.62C1114.45 394.62 1113.55 393.64 1113.55 391.88V386H1111.83V392.14C1111.83 394.64 1113.37 396.2 1115.57 396.2C1116.69 396.2 1117.89 395.76 1118.59 394.74V396H1120.31V386ZM1123.55 396H1125.27V389.52C1125.67 388.26 1126.75 387.6 1127.77 387.6C1128.07 387.6 1128.33 387.62 1128.63 387.72L1128.85 386C1128.59 385.94 1128.31 385.9 1127.97 385.9C1126.77 385.9 1125.65 386.66 1125.27 387.48V386H1123.55V396ZM1130.74 396H1132.46V389.52C1132.86 388.26 1133.94 387.6 1134.96 387.6C1135.26 387.6 1135.52 387.62 1135.82 387.72L1136.04 386C1135.78 385.94 1135.5 385.9 1135.16 385.9C1133.96 385.9 1132.84 386.66 1132.46 387.48V386H1130.74V396ZM1141.96 396.2C1144.04 396.2 1145.56 395.28 1146.46 393.82L1145.1 392.88C1144.48 393.94 1143.52 394.62 1141.98 394.62C1140 394.62 1138.58 393.2 1138.52 391.34H1146.72C1146.74 391.12 1146.74 391 1146.74 390.82C1146.74 387.62 1144.58 385.8 1141.98 385.8C1138.92 385.8 1136.78 388.06 1136.78 391C1136.78 393.94 1138.84 396.2 1141.96 396.2ZM1138.64 389.94C1138.96 388.28 1140.42 387.32 1141.92 387.32C1143.44 387.32 1144.72 388.3 1144.98 389.94H1138.64ZM1149.18 396H1150.9V389.36C1151.3 388.18 1152.24 387.38 1153.66 387.38C1155.2 387.38 1156.16 388.36 1156.16 390.12V396H1157.86V389.86C1157.86 387.36 1156.3 385.8 1154.06 385.8C1152.78 385.8 1151.6 386.24 1150.9 387.26V386H1149.18V396ZM1165.42 396.2C1167.5 396.2 1169.16 395.12 1170.04 393.52L1168.54 392.68C1167.98 393.82 1166.86 394.6 1165.42 394.6C1163.34 394.6 1161.92 393 1161.92 391C1161.92 389 1163.34 387.4 1165.42 387.4C1166.86 387.4 1167.98 388.18 1168.54 389.32L1170.04 388.48C1169.16 386.88 1167.5 385.8 1165.42 385.8C1162.38 385.8 1160.18 388.1 1160.18 391C1160.18 393.9 1162.38 396.2 1165.42 396.2ZM1175.05 399.88L1181.47 386H1179.55L1176.13 393.6L1172.69 386H1170.79L1175.17 395.48L1173.12 399.88H1175.05ZM740.9 422.1C741.92 422.1 742.64 421.86 743.06 421.64L742.54 420.18C742.24 420.36 741.76 420.56 741.1 420.56C740.2 420.56 739.5 420.1 739.5 418.82V413.58H742.6V412H739.5V409.16H737.78V412H735.26V413.58H737.78V419.04C737.78 421.12 739.22 422.1 740.9 422.1ZM749.185 422.2C752.185 422.2 754.405 419.88 754.405 417C754.405 414.12 752.185 411.8 749.185 411.8C746.145 411.8 743.945 414.12 743.945 417C743.945 419.88 746.145 422.2 749.185 422.2ZM749.185 420.6C747.105 420.6 745.705 419 745.705 417C745.705 415 747.105 413.4 749.185 413.4C751.265 413.4 752.645 415 752.645 417C752.645 419 751.265 420.6 749.185 420.6ZM764.029 425.88L770.449 412H768.529L765.109 419.6L761.669 412H759.769L764.149 421.48L762.109 425.88H764.029ZM776.392 422.2C779.392 422.2 781.612 419.88 781.612 417C781.612 414.12 779.392 411.8 776.392 411.8C773.352 411.8 771.152 414.12 771.152 417C771.152 419.88 773.352 422.2 776.392 422.2ZM776.392 420.6C774.312 420.6 772.912 419 772.912 417C772.912 415 774.312 413.4 776.392 413.4C778.472 413.4 779.852 415 779.852 417C779.852 419 778.472 420.6 776.392 420.6ZM792.421 412H790.701V418.64C790.281 419.82 789.341 420.62 788.061 420.62C786.561 420.62 785.661 419.64 785.661 417.88V412H783.941V418.14C783.941 420.64 785.481 422.2 787.681 422.2C788.801 422.2 790.001 421.76 790.701 420.74V422H792.421V412ZM795.663 422H797.383V415.52C797.783 414.26 798.863 413.6 799.883 413.6C800.183 413.6 800.443 413.62 800.743 413.72L800.963 412C800.703 411.94 800.423 411.9 800.083 411.9C798.883 411.9 797.763 412.66 797.383 413.48V412H795.663V422ZM812.127 422.2C815.107 422.2 817.167 419.84 817.167 417C817.167 414.16 815.107 411.8 812.127 411.8C810.847 411.8 809.687 412.24 808.867 413.1V407.4H807.147V422H808.867V420.9C809.687 421.76 810.847 422.2 812.127 422.2ZM811.987 420.62C810.487 420.62 809.447 419.9 808.867 418.96V415.02C809.447 414.08 810.487 413.38 811.987 413.38C813.987 413.38 815.387 415 815.387 417C815.387 419 813.987 420.62 811.987 420.62ZM823.888 422.2C825.188 422.2 826.348 421.76 827.148 420.9V422H828.868V412H827.148V413.1C826.348 412.24 825.188 411.8 823.888 411.8C820.908 411.8 818.848 414.16 818.848 417C818.848 419.84 820.908 422.2 823.888 422.2ZM824.028 420.62C822.028 420.62 820.628 419 820.628 417C820.628 415 822.028 413.38 824.028 413.38C825.528 413.38 826.568 414.08 827.148 415.02V418.96C826.568 419.9 825.528 420.62 824.028 420.62ZM832.108 422H833.828V407.4H832.108V422ZM841.349 422.2C842.649 422.2 843.809 421.76 844.609 420.9V422H846.329V412H844.609V413.1C843.809 412.24 842.649 411.8 841.349 411.8C838.369 411.8 836.309 414.16 836.309 417C836.309 419.84 838.369 422.2 841.349 422.2ZM841.489 420.62C839.489 420.62 838.089 419 838.089 417C838.089 415 839.489 413.38 841.489 413.38C842.989 413.38 844.029 414.08 844.609 415.02V418.96C844.029 419.9 842.989 420.62 841.489 420.62ZM849.569 422H851.289V415.36C851.689 414.18 852.629 413.38 854.049 413.38C855.589 413.38 856.549 414.36 856.549 416.12V422H858.249V415.86C858.249 413.36 856.689 411.8 854.449 411.8C853.169 411.8 851.989 412.24 851.289 413.26V412H849.569V422ZM865.807 422.2C867.887 422.2 869.547 421.12 870.427 419.52L868.927 418.68C868.367 419.82 867.247 420.6 865.807 420.6C863.727 420.6 862.307 419 862.307 417C862.307 415 863.727 413.4 865.807 413.4C867.247 413.4 868.367 414.18 868.927 415.32L870.427 414.48C869.547 412.88 867.887 411.8 865.807 411.8C862.767 411.8 860.567 414.1 860.567 417C860.567 419.9 862.767 422.2 865.807 422.2ZM877.055 422.2C879.135 422.2 880.655 421.28 881.555 419.82L880.195 418.88C879.575 419.94 878.615 420.62 877.075 420.62C875.095 420.62 873.675 419.2 873.615 417.34H881.815C881.835 417.12 881.835 417 881.835 416.82C881.835 413.62 879.675 411.8 877.075 411.8C874.015 411.8 871.875 414.06 871.875 417C871.875 419.94 873.935 422.2 877.055 422.2ZM873.735 415.94C874.055 414.28 875.515 413.32 877.015 413.32C878.535 413.32 879.815 414.3 880.075 415.94H873.735ZM889.98 409.72C890.68 409.72 891.2 409.2 891.2 408.5C891.2 407.84 890.68 407.28 889.98 407.28C889.28 407.28 888.74 407.84 888.74 408.5C888.74 409.2 889.28 409.72 889.98 409.72ZM889.1 422H890.82V412H889.1V422ZM894.081 422H895.801V415.36C896.201 414.18 897.141 413.38 898.561 413.38C900.101 413.38 901.061 414.36 901.061 416.12V422H902.761V415.86C902.761 413.36 901.201 411.8 898.961 411.8C897.681 411.8 896.501 412.24 895.801 413.26V412H894.081V422ZM913.703 422.2C915.703 422.2 917.183 421.12 917.183 419.2C917.183 417.68 916.203 416.8 914.463 416.26L913.363 415.92C912.243 415.58 911.943 415.1 911.943 414.48C911.943 413.74 912.743 413.28 913.603 413.28C914.563 413.28 915.223 413.78 915.683 414.42L916.963 413.54C916.303 412.42 915.163 411.8 913.663 411.8C911.763 411.8 910.223 412.84 910.223 414.54C910.223 415.96 911.063 416.98 912.723 417.46L913.723 417.78C915.023 418.18 915.463 418.62 915.463 419.34C915.463 420.2 914.683 420.68 913.723 420.68C912.603 420.68 911.562 420.12 911.183 419.1L909.783 419.88C910.403 421.46 911.923 422.2 913.703 422.2ZM923.849 422.1C924.869 422.1 925.589 421.86 926.009 421.64L925.489 420.18C925.189 420.36 924.709 420.56 924.049 420.56C923.149 420.56 922.449 420.1 922.449 418.82V413.58H925.549V412H922.449V409.16H920.729V412H918.209V413.58H920.729V419.04C920.729 421.12 922.169 422.1 923.849 422.1ZM931.974 422.2C933.274 422.2 934.434 421.76 935.234 420.9V422H936.954V412H935.234V413.1C934.434 412.24 933.274 411.8 931.974 411.8C928.994 411.8 926.934 414.16 926.934 417C926.934 419.84 928.994 422.2 931.974 422.2ZM932.114 420.62C930.114 420.62 928.714 419 928.714 417C928.714 415 930.114 413.38 932.114 413.38C933.614 413.38 934.654 414.08 935.234 415.02V418.96C934.654 419.9 933.614 420.62 932.114 420.62ZM945.174 422.2C948.154 422.2 950.214 419.84 950.214 417C950.214 414.16 948.154 411.8 945.174 411.8C943.894 411.8 942.734 412.24 941.914 413.1V407.4H940.194V422H941.914V420.9C942.734 421.76 943.894 422.2 945.174 422.2ZM945.034 420.62C943.534 420.62 942.494 419.9 941.914 418.96V415.02C942.494 414.08 943.534 413.38 945.034 413.38C947.034 413.38 948.434 415 948.434 417C948.434 419 947.034 420.62 945.034 420.62ZM957.075 422.2C959.155 422.2 960.675 421.28 961.575 419.82L960.215 418.88C959.595 419.94 958.635 420.62 957.095 420.62C955.115 420.62 953.695 419.2 953.635 417.34H961.835C961.855 417.12 961.855 417 961.855 416.82C961.855 413.62 959.695 411.8 957.095 411.8C954.035 411.8 951.895 414.06 951.895 417C951.895 419.94 953.955 422.2 957.075 422.2ZM953.755 415.94C954.075 414.28 955.535 413.32 957.035 413.32C958.555 413.32 959.835 414.3 960.095 415.94H953.755ZM964.296 422H966.016V407.4H964.296V422ZM973.736 422.2C975.816 422.2 977.476 421.12 978.356 419.52L976.856 418.68C976.296 419.82 975.176 420.6 973.736 420.6C971.656 420.6 970.236 419 970.236 417C970.236 415 971.656 413.4 973.736 413.4C975.176 413.4 976.296 414.18 976.856 415.32L978.356 414.48C977.476 412.88 975.816 411.8 973.736 411.8C970.696 411.8 968.496 414.1 968.496 417C968.496 419.9 970.696 422.2 973.736 422.2ZM985.025 422.2C988.025 422.2 990.245 419.88 990.245 417C990.245 414.12 988.025 411.8 985.025 411.8C981.985 411.8 979.785 414.12 979.785 417C979.785 419.88 981.985 422.2 985.025 422.2ZM985.025 420.6C982.945 420.6 981.545 419 981.545 417C981.545 415 982.945 413.4 985.025 413.4C987.105 413.4 988.485 415 988.485 417C988.485 419 987.105 420.6 985.025 420.6ZM993.594 409.72C994.294 409.72 994.814 409.2 994.814 408.5C994.814 407.84 994.294 407.28 993.594 407.28C992.894 407.28 992.354 407.84 992.354 408.5C992.354 409.2 992.894 409.72 993.594 409.72ZM992.714 422H994.434V412H992.714V422ZM997.694 422H999.414V415.36C999.814 414.18 1000.75 413.38 1002.17 413.38C1003.71 413.38 1004.67 414.36 1004.67 416.12V422H1006.37V415.86C1006.37 413.36 1004.81 411.8 1002.57 411.8C1001.29 411.8 1000.11 412.24 999.414 413.26V412H997.694V422ZM1011.51 422V419.52H1009.03V422H1011.51Z" fill="#97959B"/>
<defs>
<linearGradient id="paint0_linear_865_96" x1="206.865" y1="30.5018" x2="677.789" y2="151.433" gradientUnits="userSpaceOnUse">
<stop stop-color="#E8B24F"/>
<stop offset="1" stop-color="#DD475E"/>
</linearGradient>
<linearGradient id="paint1_linear_865_96" x1="724.018" y1="191.673" x2="342.926" y2="316.998" gradientUnits="userSpaceOnUse">
<stop offset="0.0219644" stop-color="#DD475E"/>
<stop offset="1" stop-color="#E8B24F"/>
</linearGradient>
<linearGradient id="paint2_linear_865_96" x1="727.881" y1="199.385" x2="471.926" y2="226.867" gradientUnits="userSpaceOnUse">
<stop offset="0.151042" stop-color="#DD475E"/>
<stop offset="1" stop-color="#E8B24F"/>
</linearGradient>
<linearGradient id="paint3_linear_865_96" x1="716.506" y1="187" x2="352.527" y2="188.274" gradientUnits="userSpaceOnUse">
<stop stop-color="#DD475E"/>
<stop offset="1" stop-color="#E8B24F"/>
</linearGradient>
<linearGradient id="paint4_linear_865_96" x1="727.176" y1="98.72" x2="457.117" y2="169.686" gradientUnits="userSpaceOnUse">
<stop offset="0.151042" stop-color="#DD475E"/>
<stop offset="1" stop-color="#E8B24F"/>
</linearGradient>
<linearGradient id="paint5_linear_865_96" x1="749.193" y1="211.455" x2="1167.55" y2="229.032" gradientUnits="userSpaceOnUse">
<stop stop-color="#DD475E"/>
<stop offset="1" stop-color="#6D1576"/>
</linearGradient>
<clipPath id="clip0_865_96">
<rect width="28" height="28" fill="white" transform="translate(1048 176)"/>
</clipPath>
<clipPath id="clip1_865_96">
<rect width="28" height="28" fill="white" transform="translate(1048 246)"/>
</clipPath>
</defs>
</svg>
