<svg width="46" height="45" viewBox="0 0 46 45" fill="none" xmlns="http://www.w3.org/2000/svg">
<rect width="46" height="45" fill="#F5F5F5"/>
<g id="Frame 43">
<rect width="1440" height="569" transform="translate(-80 -221)" fill="black"/>
<g id="Group 5">
<g id="Group 2">
<g id="Black">
<path id="Vector" d="M17.6684 0.0899048C17.4041 0.168213 17.0909 0.393353 16.6798 0.794682C16.2001 1.28411 15.975 1.62671 15.4758 2.66431C14.6437 4.37731 14.4969 4.57308 13.9683 4.57308C13.7432 4.57308 13.0971 4.45562 12.5294 4.32837C10.3759 3.80957 9.21107 3.90746 8.48672 4.65139C7.85046 5.30723 7.71342 5.82602 7.63511 7.95015C7.60574 8.96816 7.53722 9.88829 7.49807 9.97639C7.40018 10.1819 6.66604 10.4658 5.62844 10.6812C4.2091 10.9846 3.37707 11.3076 2.87785 11.7481C2.31011 12.2473 2.05561 12.7759 2.05561 13.4807C2.05561 14.2149 2.17307 14.5966 2.89743 16.1334C3.24003 16.8774 3.54347 17.5919 3.58263 17.729C3.67072 18.1009 3.47495 18.3456 2.32969 19.2756C0.48943 20.7536 0 21.4388 0 22.4862C0 23.5336 0.48943 24.2188 2.32969 25.6969C3.47495 26.6268 3.67072 26.8715 3.58263 27.2435C3.54347 27.3805 3.24003 28.0951 2.89743 28.839C2.17307 30.3758 2.05561 30.7576 2.05561 31.4917C2.06539 32.9502 3.0932 33.7529 5.62844 34.2913C6.65625 34.5066 7.40018 34.7905 7.49807 34.9961C7.53722 35.0841 7.60574 35.9945 7.63511 37.0223C7.71342 39.2541 7.86025 39.7533 8.57481 40.3896C9.3579 41.0748 10.3368 41.1433 12.5 40.6539C13.0971 40.5168 13.7726 40.3994 13.9879 40.3994C14.4871 40.3994 14.6535 40.6049 15.4758 42.3081C16.3959 44.2169 17.2573 45 18.4417 45C19.1269 45 20.0177 44.5204 21.486 43.3457C21.9656 42.964 22.5138 42.5822 22.6802 42.5039C23.1109 42.2983 23.3262 42.406 24.7652 43.5317C26.439 44.8434 27.1829 45.1468 28.2107 44.9021C28.6414 44.7944 28.8274 44.6672 29.3266 44.1778C29.8063 43.6883 30.0314 43.3457 30.5306 42.3081C31.3529 40.6147 31.5193 40.3994 32.0185 40.3994C32.2339 40.3994 32.9093 40.5168 33.5064 40.6539C35.6697 41.1433 36.6485 41.0748 37.4316 40.3896C38.1462 39.7533 38.293 39.2541 38.3713 37.0223C38.4007 35.9945 38.4692 35.0841 38.5084 34.9961C38.6062 34.7807 39.36 34.4968 40.378 34.2913C42.8936 33.7823 43.941 32.9502 43.9508 31.4917C43.9508 30.7576 43.8334 30.3758 43.109 28.839C42.7664 28.0951 42.4629 27.3805 42.4238 27.2435C42.3357 26.8715 42.5315 26.6268 43.6767 25.6969C45.517 24.2188 46.0064 23.5336 46.0064 22.4862C46.0064 21.4388 45.517 20.7536 43.6767 19.2756C42.5315 18.3456 42.3357 18.1009 42.4238 17.729C42.4629 17.5919 42.7664 16.8774 43.109 16.1334C43.8334 14.5966 43.9508 14.2149 43.9508 13.4807C43.941 12.0222 42.8936 11.1902 40.378 10.6812C39.1152 10.4267 38.6062 10.2015 38.479 9.83935C38.4203 9.67294 38.3713 8.90943 38.3713 8.14592C38.3713 6.05116 38.2049 5.37575 37.5099 4.65139C36.7953 3.90746 35.7088 3.81936 33.5064 4.31858C32.9093 4.45562 32.2339 4.57308 32.0185 4.57308C31.5193 4.57308 31.3529 4.36752 30.5306 2.66431C30.0314 1.62671 29.8063 1.28411 29.3266 0.794682C28.8372 0.305252 28.6414 0.178001 28.2107 0.0703278C27.271 -0.145023 26.4488 0.129059 25.2056 1.09813C23.7276 2.25319 23.2773 2.54684 23.0032 2.54684C22.7291 2.54684 22.2789 2.25319 20.8008 1.09813C19.5674 0.138847 18.6081 -0.174389 17.6684 0.0899048ZM18.7745 2.36086C18.9214 2.43917 19.4793 2.86008 20.0177 3.29078C21.2608 4.299 22.0439 4.70034 22.8466 4.74928C23.8744 4.8178 24.2757 4.60245 26.6739 2.76219C27.3787 2.22382 27.6528 2.12593 27.8584 2.38044C27.9367 2.48811 28.3282 3.22226 28.7393 4.01513C29.542 5.60089 30.0118 6.20778 30.7166 6.55038C31.3823 6.86362 32.3807 6.83425 34.1328 6.4525C34.8964 6.2763 35.6109 6.13926 35.7186 6.13926C36.071 6.13926 36.1493 6.49165 36.2178 8.48852C36.2668 10.0939 36.3157 10.4658 36.4821 10.8378C36.952 11.8852 37.5295 12.2278 39.7809 12.7955C40.6325 13.0109 41.4449 13.2556 41.5722 13.3437C41.8854 13.5394 41.8561 13.6667 41.1023 15.2329C40.3976 16.7109 40.2311 17.2493 40.2311 18.0226C40.2409 19.1189 40.5933 19.6279 42.4238 21.1158C43.0796 21.6444 43.6669 22.173 43.7355 22.2807C43.9117 22.5743 43.7257 22.8092 42.4727 23.7979C40.6814 25.2368 40.2409 25.8633 40.2311 26.9498C40.2311 27.7231 40.3976 28.2615 41.1023 29.7396C41.8561 31.3057 41.8854 31.433 41.5722 31.6386C41.4351 31.7169 40.701 31.942 39.9277 32.1378C37.598 32.6957 37.0303 33.009 36.5506 34.0074C36.2863 34.5262 36.2766 34.6437 36.2178 36.4741C36.1493 38.4808 36.071 38.8332 35.7186 38.8332C35.6109 38.8332 34.8964 38.6961 34.1328 38.5199C30.8928 37.7956 30.1391 38.148 28.71 40.9965C27.8486 42.7095 27.78 42.7878 27.4766 42.7095C27.3493 42.6801 26.6935 42.2298 26.0279 41.711C24.4617 40.4875 23.9723 40.2525 23.0032 40.2525C22.0341 40.2525 21.5447 40.4875 19.9785 41.711C19.3129 42.2298 18.6571 42.6801 18.5298 42.7095C18.2166 42.7878 18.1579 42.6997 17.2671 40.9475C16.112 38.6668 15.5247 38.1773 13.9488 38.2165C13.4789 38.2263 12.6273 38.3535 11.8344 38.5297C11.1003 38.6961 10.4053 38.8332 10.2976 38.8332C9.90606 38.8332 9.85712 38.6178 9.7886 36.5524C9.73966 34.8688 9.7005 34.5066 9.52431 34.1347C9.08382 33.146 8.33989 32.6566 6.65625 32.2748C5.31521 31.9714 4.38529 31.6581 4.27762 31.4819C4.2091 31.3743 4.2972 31.0806 4.60064 30.4052C5.70675 27.9483 5.70675 27.9483 5.7557 27.175C5.82422 25.9122 5.47183 25.3641 3.55326 23.837C2.94637 23.3476 2.38842 22.8484 2.30032 22.7211C2.16328 22.5058 2.16328 22.4666 2.30032 22.2513C2.38842 22.124 2.94637 21.6248 3.55326 21.1354C5.35436 19.6965 5.76549 19.1189 5.77527 18.0226C5.77527 17.2493 5.60887 16.7109 4.90409 15.2329C4.15037 13.6667 4.121 13.5394 4.43424 13.3339C4.56149 13.2556 5.12923 13.0696 5.68718 12.9423C8.25179 12.3354 8.93699 11.9831 9.43621 10.9944C9.72008 10.4462 9.72987 10.3875 9.7886 8.49831C9.85712 6.49165 9.93543 6.13926 10.2878 6.13926C10.3955 6.13926 11.1101 6.2763 11.8736 6.4525C15.0647 7.15727 15.8673 6.81467 17.1888 4.16196C18.1872 2.14551 18.246 2.08678 18.7745 2.36086Z" fill="#FF0000"/>
<path id="Vector_2" d="M16.5623 13.7641C14.957 14.3612 14.0173 15.7903 14.1152 17.4837C14.1935 18.8248 14.8787 19.8917 16.0729 20.5378C16.67 20.8608 16.7287 20.8706 17.7663 20.8706C18.7354 20.8706 18.892 20.8412 19.3814 20.6063C20.0764 20.2637 20.7812 19.5589 21.1238 18.8639C21.3587 18.3745 21.3881 18.2179 21.3881 17.2488C21.3881 16.2112 21.3783 16.1525 21.0553 15.5554C20.654 14.8115 20.0373 14.2339 19.3031 13.8913C18.5396 13.5487 17.3161 13.49 16.5623 13.7641ZM18.5886 15.9959C18.9899 16.2993 19.2053 16.6615 19.2542 17.1314C19.3912 18.306 17.9915 19.1968 17.0322 18.5409C16.2882 18.0417 16.0827 17.3467 16.4644 16.6126C16.8756 15.8099 17.9229 15.5065 18.5886 15.9959Z" fill="#FF0000"/>
<path id="Vector_3" d="M29.8063 14.2147C29.6398 14.3028 26.1747 17.6995 22.1026 21.7813C15.4464 28.4375 14.6927 29.2304 14.6241 29.573C14.4871 30.3659 15.1234 31.0022 15.9162 30.8651C16.2588 30.7966 17.0517 30.0429 23.8058 23.2887C30.4719 16.6129 31.3137 15.7417 31.3724 15.4089C31.4605 14.9293 31.2745 14.4888 30.8928 14.2539C30.5306 14.0287 30.1978 14.0189 29.8063 14.2147Z" fill="#FF0000"/>
<path id="Vector_4" d="M26.948 24.2289C25.9299 24.5911 25 25.5699 24.7064 26.5782C24.5987 26.9501 24.5595 27.371 24.5889 27.9584C24.6183 28.6827 24.677 28.8883 24.9511 29.4169C25.3524 30.151 25.9593 30.7383 26.7032 31.0809C27.1927 31.3158 27.3884 31.3452 28.2401 31.3452C29.121 31.3452 29.2776 31.3158 29.8062 31.0613C30.5502 30.6894 31.206 30.0335 31.578 29.2896C31.8325 28.761 31.8618 28.6044 31.8618 27.7234C31.8618 26.8718 31.8325 26.6761 31.5975 26.1866C31.2549 25.4427 30.6676 24.8358 29.9335 24.4345C29.3755 24.1408 29.2287 24.1017 28.3869 24.0821C27.6723 24.0527 27.3395 24.0919 26.948 24.2289ZM28.9742 26.4215C29.7181 26.9306 29.9237 27.6255 29.5419 28.3597C29.1308 29.1624 28.0834 29.4658 27.4178 28.9666C26.9969 28.6631 26.7228 28.1737 26.7228 27.743C26.7228 26.588 28.0639 25.8049 28.9742 26.4215Z" fill="#FF0000"/>
</g>
</g>
</g>
</g>
</svg>
