<svg width="121" height="121" viewBox="0 0 121 121" fill="none" xmlns="http://www.w3.org/2000/svg">
<rect x="1.41421" y="60.1041" width="83" height="83" transform="rotate(-45 1.41421 60.1041)" stroke="#1434CB" stroke-width="2"/>
<path d="M59.8466 42.1714C59.9966 42.2571 59.5681 42.3214 58.8825 42.2785C58.2184 42.2357 57.7256 42.2785 57.7685 42.3428C57.8756 42.5356 56.3974 42.7927 56.1403 42.6427C56.0118 42.5784 55.9261 42.6213 55.9261 42.7284C55.9261 42.8569 55.7975 42.9641 55.6476 42.9641C55.4976 42.9641 54.6835 43.2854 53.848 43.6925C53.0124 44.0995 52.2626 44.3995 52.1983 44.3352C52.1341 44.2923 52.1127 44.3138 52.1555 44.378C52.2198 44.4637 51.8127 44.8708 51.2557 45.3207C50.6987 45.7491 49.8846 46.499 49.4561 46.9917C49.0276 47.463 48.642 47.8058 48.5777 47.763C48.5349 47.7201 48.4921 47.8058 48.4921 47.9558C48.4921 48.0843 48.0422 48.9413 47.4851 49.8196C46.9496 50.698 46.4997 51.5335 46.4997 51.7049C46.4997 51.8549 46.414 51.9406 46.3283 51.8763C46.2426 51.8335 46.1569 51.9406 46.1355 52.1334C46.114 52.7118 45.5142 54.7685 45.407 54.6614C45.3642 54.6185 45.3428 55.0256 45.3856 55.5612C45.4285 56.311 45.3856 56.4824 45.2357 56.2467C45.0643 56.0111 45.0428 56.1182 45.1285 56.6752C45.1928 57.0823 45.2785 57.5321 45.3214 57.6821C45.3642 57.8321 45.3214 58.0035 45.2142 58.0677C45.0857 58.1534 45 58.3248 45 58.4534C45 58.6033 45.0857 58.5819 45.2142 58.3891C45.407 58.0892 45.4927 58.7319 45.5142 60.6814C45.5142 60.9385 45.6213 61.0885 45.7284 61.0242C45.8355 60.9385 45.8784 61.0885 45.8141 61.3456C45.7284 61.6455 45.7713 61.774 45.9212 61.6669C46.0498 61.5812 46.0926 61.7098 46.0283 61.9883C45.9426 62.2882 45.9855 62.4167 46.1355 62.3096C46.264 62.2239 46.3068 62.3525 46.2211 62.6524C46.1569 62.9309 46.1569 63.0809 46.2211 63.0166C46.3711 62.8881 47.8922 65.8874 47.8493 66.2516C47.8493 66.4015 47.9136 66.4872 47.9993 66.423C48.1707 66.3158 49.0062 68.0297 48.8991 68.3082C48.8777 68.4154 48.942 68.4368 49.0491 68.3725C49.2419 68.244 49.8632 69.4865 49.7561 69.8079C49.7346 69.8936 49.7989 69.9579 49.9274 69.9579C50.2059 69.9579 50.8058 71.1576 50.613 71.3504C50.5273 71.4575 50.5916 71.4361 50.763 71.3504C50.9986 71.2219 51.0415 71.2647 50.9129 71.5861C50.8272 71.8003 50.8272 71.9074 50.9129 71.8217C51.1272 71.6075 51.8984 72.9358 51.727 73.2143C51.6413 73.3428 51.6628 73.3856 51.8127 73.3C52.027 73.1714 52.4126 73.9427 52.3269 74.3069C52.3055 74.414 52.3912 74.414 52.5197 74.3283C52.7125 74.2212 52.7339 74.2854 52.6482 74.5425C52.5625 74.7353 52.584 74.8425 52.6911 74.7782C52.8839 74.6711 53.2695 75.4637 53.1838 75.8065C53.1624 75.9136 53.2481 75.9136 53.3766 75.8279C53.5695 75.7208 53.5909 75.7851 53.5052 76.0422C53.4195 76.235 53.4409 76.3421 53.548 76.2778C53.7408 76.1707 54.1265 76.9634 54.0408 77.2848C54.0194 77.3919 54.0836 77.4561 54.2122 77.4561C54.4907 77.4561 55.0905 78.6559 54.8977 78.8487C54.812 78.9558 54.8549 78.9558 54.9834 78.8915C55.2405 78.7416 55.8618 79.9627 55.7547 80.3483C55.7118 80.4555 55.7547 80.4983 55.8404 80.4126C56.0546 80.1769 56.8259 81.5052 56.6545 81.8051C56.5688 81.9551 56.5688 81.998 56.6759 81.9123C56.9115 81.6766 57.6828 82.9834 57.5114 83.3048C57.4257 83.4548 57.4257 83.4976 57.5328 83.4119C57.7685 83.1763 58.5397 84.4831 58.3684 84.8045C58.2827 84.9544 58.3041 84.9973 58.3898 84.8901C58.4969 84.8045 58.7754 85.1044 59.0111 85.5329C59.2682 85.9613 59.7823 86.5183 60.1894 86.754C60.5964 86.9897 60.8535 87.0754 60.7678 86.9254C60.6393 86.6897 60.8749 86.5612 61.3462 86.6469C61.4319 86.6469 61.4748 86.604 61.4534 86.5183C61.3891 86.1756 61.989 85.1901 62.2032 85.3186C62.3317 85.3829 62.3532 85.34 62.2675 85.2115C62.0961 84.9116 62.8673 83.6262 63.103 83.8404C63.2101 83.9261 63.2101 83.8618 63.1244 83.7333C62.9316 83.3905 63.6386 82.1479 63.9171 82.3193C64.0456 82.3836 64.067 82.3407 63.9814 82.2122C63.81 81.9123 64.5812 80.6268 64.8169 80.8411C64.924 80.9268 64.924 80.8839 64.8383 80.734C64.6669 80.434 65.4382 79.1058 65.6524 79.3414C65.7381 79.4271 65.7809 79.3843 65.7381 79.2772C65.631 78.9344 66.2308 77.6704 66.4451 77.7989C66.5522 77.8632 66.6165 77.8418 66.595 77.7346C66.4879 77.4133 67.1092 76.1707 67.302 76.2993C67.4091 76.3635 67.4734 76.3421 67.452 76.235C67.3663 75.8922 67.7519 75.0995 67.9447 75.2067C68.0518 75.2709 68.0733 75.1638 67.9876 74.971C67.9019 74.7139 67.9233 74.6496 68.1161 74.7568C68.2447 74.8425 68.3304 74.8425 68.3089 74.7353C68.2232 74.3926 68.6089 73.5999 68.8017 73.707C68.9088 73.7713 68.9302 73.6642 68.8445 73.4713C68.7588 73.2143 68.7803 73.15 68.9731 73.2571C69.1016 73.3428 69.1873 73.3428 69.1659 73.2357C69.0802 72.8929 69.4658 72.1002 69.6586 72.2073C69.7657 72.2716 69.7872 72.1645 69.7015 71.9717C69.6158 71.7146 69.6372 71.6503 69.83 71.7575C69.9586 71.8431 70.0442 71.8431 70.0228 71.736C69.9371 71.3932 70.3228 70.6006 70.5156 70.7077C70.6227 70.772 70.6441 70.6648 70.5584 70.472C70.4727 70.2149 70.4941 70.1507 70.687 70.2578C70.8155 70.3435 70.9012 70.3435 70.8798 70.2364C70.7727 69.9364 71.3939 68.6724 71.5868 68.801C71.6939 68.8653 71.7153 68.7367 71.6296 68.5439C71.5439 68.2868 71.5653 68.2225 71.7581 68.3297C71.8867 68.4154 71.9724 68.4154 71.951 68.3082C71.8438 67.9869 72.4651 66.7443 72.6579 66.8729C72.7651 66.9371 72.8293 66.9157 72.8079 66.8086C72.7008 66.5087 73.5363 64.8162 73.7291 64.9447C73.8362 65.009 73.8577 64.8805 73.772 64.6876C73.6863 64.4306 73.7077 64.3663 73.8791 64.4734C74.0505 64.5805 74.0933 64.4948 73.9862 64.2592C73.9005 64.0235 73.9434 63.9378 74.0719 64.0235C74.2004 64.1092 74.3076 64.0449 74.2861 63.895C74.2647 63.1666 74.3718 62.8666 74.6075 63.0166C74.736 63.1023 74.7789 63.0809 74.7146 62.9523C74.5646 62.7167 75.0574 60.8957 75.2502 61.067C75.3145 61.1313 75.3145 60.9385 75.2502 60.6172C75.1859 60.2958 75.2288 60.0816 75.3359 60.1458C75.443 60.2101 75.5287 59.6317 75.5501 58.8176C75.5716 58.0249 75.6358 56.9537 75.7215 56.4395C75.8072 55.8825 75.7858 55.604 75.6787 55.7754C75.443 56.1396 75.1217 53.9972 75.3359 53.633C75.4216 53.4831 75.4002 53.4617 75.2502 53.5473C75.0145 53.6973 74.9074 53.2903 74.9288 52.4333C74.9503 52.2834 74.9074 52.1977 74.8431 52.2619C74.6718 52.4119 73.3006 49.5411 73.4292 49.3055C73.4935 49.1983 73.4506 49.1769 73.3221 49.2626C73.0864 49.4126 72.9579 49.1127 73.065 48.6413C73.0864 48.5128 73.0221 48.4914 72.9364 48.5771C72.7865 48.7485 71.6296 47.3559 71.5653 46.9274C71.5225 46.6489 70.687 45.7491 70.5156 45.8134C70.2799 45.8991 69.2087 44.9565 69.3801 44.7851C69.4658 44.7208 69.4444 44.6565 69.3158 44.678C68.8659 44.7851 68.5446 44.678 68.6731 44.4637C68.7588 44.3352 68.7374 44.2709 68.6303 44.2923C68.2875 44.378 67.4948 43.9924 67.602 43.7996C67.6662 43.6925 67.5591 43.671 67.3663 43.7567C67.1306 43.8424 67.0449 43.7996 67.1306 43.671C67.2163 43.5425 67.1521 43.4568 67.0021 43.4568C66.5522 43.4997 64.0885 42.6856 64.1742 42.5356C64.217 42.4713 63.9599 42.4499 63.5957 42.4927C63.2315 42.557 62.9959 42.5142 63.0601 42.4071C63.1244 42.2999 62.6317 42.2357 61.9675 42.2785C61.282 42.3214 60.8535 42.2571 61.0035 42.1714C61.1534 42.0643 60.9178 42 60.425 42C59.9323 42 59.6966 42.0643 59.8466 42.1714ZM62.546 51.812C62.9102 51.962 63.1458 52.1762 63.0601 52.2834C62.953 52.369 63.0173 52.3905 63.1673 52.3048C63.7885 51.9406 66.8735 54.8113 66.5093 55.4112C66.4022 55.5826 66.4451 55.604 66.6379 55.4969C66.8521 55.3684 66.895 55.4112 66.7879 55.6897C66.7022 55.8825 66.7236 56.0111 66.8307 55.9468C67.0664 55.7968 67.3449 56.8252 67.1521 57.1465C67.0664 57.2965 67.0878 57.3179 67.2377 57.2322C67.4306 57.1251 67.4948 57.5321 67.4948 58.7104C67.4948 59.7388 67.4091 60.2958 67.2806 60.2101C67.1521 60.1458 67.1306 60.2315 67.1949 60.4243C67.2806 60.5957 67.0664 61.2813 66.7664 61.924C66.1237 63.2094 63.9814 65.3304 63.4886 65.159C63.3172 65.0947 63.253 65.1161 63.3172 65.2232C63.3815 65.3304 62.9102 65.5874 62.2675 65.7588C60.9606 66.1445 59.4824 66.2087 59.6752 65.8874C59.7395 65.7588 59.6538 65.7374 59.461 65.8017C59.0325 65.9731 57.4043 65.4589 57.5543 65.2232C57.6185 65.1161 57.5328 65.0733 57.3829 65.1375C57.0401 65.2661 54.812 63.3594 54.9834 63.0809C55.0477 62.9738 54.9834 62.9095 54.812 62.9309C54.6621 62.9738 54.5549 62.8238 54.5549 62.631C54.5764 62.4167 54.5121 62.2882 54.4264 62.3525C54.1907 62.5024 53.9551 61.8383 54.1479 61.5598C54.2122 61.4313 54.1693 61.3884 54.0622 61.4527C53.7194 61.6669 53.548 61.0242 53.4195 59.0532C53.3338 57.8749 53.3552 57.2965 53.5052 57.3822C53.6337 57.4679 53.6766 57.2965 53.6123 56.9537C53.5266 56.5467 53.5695 56.4395 53.7837 56.5681C53.9765 56.6752 54.0194 56.6538 53.9122 56.4824C53.698 56.1396 53.9765 55.3469 54.255 55.5183C54.3836 55.604 54.4264 55.5612 54.3621 55.4541C53.9337 54.7471 57.1901 51.9192 58.4755 51.8763C58.8183 51.8549 59.0539 51.7906 58.9896 51.6835C58.8183 51.4264 61.839 51.5121 62.546 51.812Z" fill="white"/>
</svg>
