<svg width="121" height="121" viewBox="0 0 121 121" fill="none" xmlns="http://www.w3.org/2000/svg">
<rect x="1.41421" y="60.1041" width="83" height="83" transform="rotate(-45 1.41421 60.1041)" stroke="#1434CB" stroke-width="2"/>
<path d="M41.448 45.1434C41.276 45.2389 44.0285 48.1061 49.8583 53.9169C58.8039 62.8624 58.9377 62.9579 60.4095 62.9579C61.8813 62.9579 62.0151 62.8624 70.9606 53.9169C76.7905 48.1061 79.5429 45.2389 79.3709 45.1434C79.0651 44.9522 41.7538 44.9522 41.448 45.1434Z" fill="white"/>
<path d="M39.1541 47.3989C38.9247 47.9723 38.963 72.4578 39.1923 72.6872C39.3261 72.821 41.4287 70.8522 45.8441 66.4368L52.2857 59.9952L45.7868 53.4963C40.2436 47.9532 39.2879 47.0739 39.1541 47.3989Z" fill="white"/>
<path d="M74.9743 53.5537L68.5327 59.9952L75.0316 66.4941C80.5748 72.0372 81.5305 72.9165 81.6643 72.5916C81.8937 72.0181 81.8554 47.5326 81.6261 47.3033C81.4923 47.1695 79.3897 49.1382 74.9743 53.5537Z" fill="white"/>
<path d="M47.6218 68.2909C42.6521 73.2606 41.2376 74.7897 41.4861 74.8853C41.9066 75.0382 78.912 75.0382 79.3325 74.8853C79.581 74.7897 78.1666 73.2606 73.1968 68.2909L66.7362 61.8302L65.379 63.13C63.4485 64.9458 62.5692 65.3472 60.4093 65.3472C58.2494 65.3472 57.3701 64.9458 55.4396 63.13L54.0825 61.8302L47.6218 68.2909Z" fill="white"/>
</svg>
