<svg width="121" height="121" viewBox="0 0 121 121" fill="none" xmlns="http://www.w3.org/2000/svg">
<rect x="1.41421" y="60.1041" width="83" height="83" transform="rotate(-45 1.41421 60.1041)" stroke="#1434CB" stroke-width="2"/>
<path d="M45.404 39.936C44.7301 40.4602 44.1685 40.9469 44.1685 41.0218C44.1685 41.0967 46.2651 43.2682 48.8485 45.8329L53.5286 50.513L54.6705 49.3523C55.6066 48.4163 55.8125 48.1355 55.7189 47.7798C55.5691 47.2369 47.3509 39 46.9391 39C46.7893 39 46.0966 39.4306 45.404 39.936Z" fill="white"/>
<path d="M40.7616 44.017C39.2078 45.6644 38.8708 46.3571 39.0393 47.6488C39.7507 53.5457 44.2623 61.221 51.2636 68.4283C58.7892 76.2159 66.5394 80.8773 72.0619 80.9896C73.5782 81.027 73.6905 80.9896 74.4955 80.428C74.9635 80.1097 75.8059 79.3609 76.3675 78.7806L77.3972 77.7323L72.4925 72.8463C68.8233 69.2145 67.4941 67.9977 67.2508 68.0913C65.8093 68.6529 62.9638 68.316 60.8672 67.3612C55.6629 64.9463 52.0686 59.7234 51.9376 54.3694L51.8814 52.4412L47.0516 47.5926C44.3933 44.9156 42.1469 42.7441 42.0907 42.7441C42.0158 42.7441 41.4355 43.3244 40.7616 44.017Z" fill="white"/>
<path d="M70.5085 65.3582L69.4414 66.4252L74.2151 71.1989C77.0606 74.0444 79.0449 75.8977 79.1385 75.7854C80.0932 74.6621 80.8421 73.6512 80.9544 73.2768C81.0667 72.9024 80.5987 72.3595 76.8172 68.5593C73.4663 65.1897 72.4367 64.2724 72.0622 64.2724C71.7253 64.2724 71.2573 64.5906 70.5085 65.3582Z" fill="white"/>
</svg>
