<svg width="50" height="17" viewBox="0 0 50 17" fill="none" xmlns="http://www.w3.org/2000/svg">
<g clip-path="url(#clip0_50_318)">
<path d="M32.5668 0.0197754C29.0166 0.0197754 25.844 1.85992 25.844 5.25972C25.844 9.15861 31.4708 9.42788 31.4708 11.3866C31.4708 12.2113 30.5256 12.9496 28.9114 12.9496C26.6204 12.9496 24.9082 11.918 24.9082 11.918L24.1755 15.3488C24.1755 15.3488 26.148 16.2202 28.7668 16.2202C32.6483 16.2202 35.7026 14.2896 35.7026 10.8318C35.7026 6.71187 30.0524 6.45056 30.0524 4.63259C30.0524 3.98644 30.8282 3.27858 32.4379 3.27858C34.254 3.27858 35.7358 4.02883 35.7358 4.02883L36.4528 0.715321C36.4528 0.715321 34.8405 0.0197754 32.5668 0.0197754ZM0.085986 0.269875L0 0.770026C0 0.770026 1.49359 1.04335 2.83879 1.58864C4.57082 2.21387 4.69424 2.57788 4.98594 3.70841L8.16461 15.9623H12.4258L18.9903 0.269875H14.739L10.5209 10.9392L8.79965 1.89535C8.64179 0.860316 7.84219 0.269875 6.86346 0.269875H0.085986ZM20.6999 0.269875L17.3648 15.9622H21.4188L24.7421 0.269825H20.6999V0.269875ZM43.3104 0.269875C42.3328 0.269875 41.8149 0.793249 41.4348 1.70781L35.4954 15.9622H39.7468L40.5693 13.5864H45.7486L46.2488 15.9622H50L46.7275 0.269875H43.3104ZM43.8633 4.50947L45.1235 10.398H41.7474L43.8633 4.50947Z" fill="#1434CB"/>
</g>
<defs>
<clipPath id="clip0_50_318">
<rect width="50" height="16.24" fill="white"/>
</clipPath>
</defs>
</svg>
